<svg width="16" height="16" viewBox="0 0 16 16" fill="none" xmlns="http://www.w3.org/2000/svg">
<path fill-rule="evenodd" clip-rule="evenodd" d="M9.81864 2.25C8.37436 2.25 7.24906 3.37425 7.24906 4.74516C7.24906 6.11696 8.37448 7.24109 9.81864 7.24109C11.2628 7.24109 12.3882 6.11696 12.3882 4.74516C12.3882 3.37425 11.2629 2.25 9.81864 2.25ZM5.74906 4.74516C5.74906 2.51394 7.57818 0.75 9.81864 0.75C12.0591 0.75 13.8882 2.51394 13.8882 4.74516C13.8882 6.97704 12.0592 8.74109 9.81864 8.74109C7.57806 8.74109 5.74906 6.97704 5.74906 4.74516ZM4.96097 3.04247C3.98013 3.04247 3.214 3.81544 3.214 4.7327C3.214 5.64996 3.98013 6.42293 4.96097 6.42293C5.37519 6.42293 5.71098 6.75872 5.71098 7.17293C5.71098 7.58714 5.37519 7.92293 4.96097 7.92293C3.18457 7.92293 1.714 6.51087 1.714 4.7327C1.714 2.95453 3.18457 1.54247 4.96097 1.54247C5.37519 1.54247 5.71098 1.87826 5.71098 2.29247C5.71098 2.70668 5.37519 3.04247 4.96097 3.04247ZM4.56016 9.7745C4.58802 10.1878 4.27559 10.5454 3.86231 10.5733C3.48611 10.5986 3.11387 10.6506 2.74897 10.7309L2.7288 10.7351C2.48151 10.7824 2.24498 10.8496 2.06008 10.9398C1.86917 11.033 1.80684 11.1141 1.78975 11.1492L1.78913 11.1505C1.73708 11.257 1.73673 11.3804 1.78945 11.4885L1.79018 11.49C1.80676 11.5242 1.86839 11.6051 2.06066 11.6992C2.24686 11.7904 2.4849 11.8588 2.73563 11.9092C3.14172 11.9909 3.40475 12.3862 3.32311 12.7923C3.24148 13.1984 2.8461 13.4614 2.44001 13.3798C2.13077 13.3176 1.75167 13.218 1.40117 13.0465C1.05693 12.8779 0.662542 12.6017 0.440879 12.1452C0.186495 11.6231 0.186144 11.0147 0.441203 10.4924C0.663126 10.0367 1.05688 9.76027 1.40234 9.59172C1.75012 9.42205 2.1259 9.32379 2.43661 9.26377C2.87452 9.16796 3.31758 9.10658 3.76141 9.07665C4.17469 9.04879 4.5323 9.36123 4.56016 9.7745ZM5.59087 11.9338C5.45721 12.0708 5.38983 12.2212 5.38983 12.4329C5.38983 12.643 5.45687 12.7916 5.5905 12.9272C5.7429 13.0819 6.00527 13.2394 6.41564 13.374C7.24278 13.6451 8.43817 13.75 9.81991 13.75C11.2079 13.75 12.4025 13.6414 13.2268 13.3673C13.6357 13.2314 13.897 13.0727 14.049 12.917C14.1827 12.7801 14.25 12.6297 14.25 12.4183C14.25 12.2083 14.183 12.0597 14.0493 11.9241C13.8968 11.7694 13.6344 11.6118 13.2239 11.4773C12.3967 11.2061 11.2012 11.1012 9.81991 11.1012C8.43186 11.1012 7.23728 11.2096 6.41293 11.4836C6.0041 11.6195 5.7428 11.7782 5.59087 11.9338ZM5.93984 10.0602C7.00321 9.70676 8.39867 9.60122 9.81991 9.60122C11.2321 9.60122 12.6267 9.70298 13.6911 10.0519C14.2265 10.2274 14.7353 10.4832 15.1176 10.8712C15.5187 11.2781 15.75 11.8014 15.75 12.4183C15.75 13.0334 15.521 13.5565 15.1223 13.9648C14.742 14.3545 14.2351 14.6129 13.7001 14.7907C12.6367 15.1443 11.2413 15.25 9.81991 15.25C8.40734 15.25 7.01269 15.1482 5.94837 14.7993C5.413 14.6238 4.90428 14.368 4.52203 13.98C4.12101 13.573 3.88983 13.0498 3.88983 12.4329C3.88983 11.8177 4.11879 11.2945 4.51745 10.8861C4.89783 10.4964 5.40481 10.238 5.93984 10.0602Z" fill="#2A344A"/>
</svg>
