<svg width="18" height="18" viewBox="0 0 18 18" fill="none" xmlns="http://www.w3.org/2000/svg">
<path fill-rule="evenodd" clip-rule="evenodd" d="M0.75 9C0.75 4.44365 4.44365 0.75 9 0.75C13.5563 0.75 17.25 4.44365 17.25 9C17.25 13.5563 13.5563 17.25 9 17.25C4.44365 17.25 0.75 13.5563 0.75 9ZM9 2.25C5.27208 2.25 2.25 5.27208 2.25 9C2.25 12.7279 5.27208 15.75 9 15.75C12.7279 15.75 15.75 12.7279 15.75 9C15.75 5.27208 12.7279 2.25 9 2.25ZM10 13C10 13.5523 9.55228 14 9 14C8.44771 14 8 13.5523 8 13C8 12.4477 8.44771 12 9 12C9.55228 12 10 12.4477 10 13ZM7.75 7C7.75 6.30964 8.30964 5.75 9 5.75C9.69035 5.75 10.25 6.30964 10.25 7V7.12132C10.25 7.48502 10.1055 7.83382 9.84835 8.09099L8.46967 9.46967C8.17677 9.76256 8.17677 10.2374 8.46967 10.5303C8.76256 10.8232 9.23743 10.8232 9.53033 10.5303L10.909 9.15165C11.4475 8.61317 11.75 7.88284 11.75 7.12132V7C11.75 5.48122 10.5188 4.25 9 4.25C7.48121 4.25 6.25 5.48122 6.25 7V7.5C6.25 7.91421 6.58578 8.25 7 8.25C7.41421 8.25 7.75 7.91421 7.75 7.5V7Z" fill="#2A344A"/>
</svg>
