<svg width="15" height="16" viewBox="0 0 15 16" fill="none" xmlns="http://www.w3.org/2000/svg">
<path fill-rule="evenodd" clip-rule="evenodd" d="M9.93097 0.312416L9.93137 0.312416C11.1438 0.312416 12.1954 0.713429 12.9431 1.48515C13.688 2.25397 14.0616 3.31849 14.0616 4.51767V11.4147C14.0616 12.6083 13.6907 13.668 12.952 14.4355C12.2105 15.206 11.1672 15.6102 9.96374 15.6177L9.95912 15.6177L9.95477 15.6177L9.942 15.6177L9.89303 15.6177L9.70882 15.6178L9.05424 15.618L7.07238 15.6188L5.09234 15.6196L4.44005 15.6198L4.25732 15.6199L4.20917 15.6199L4.19683 15.6199L4.19371 15.6199H4.19292H4.19272L4.19237 14.8699L4.19266 15.6199H4.19237C2.97993 15.6199 1.92844 15.2189 1.18089 14.4471C0.436187 13.6782 0.0628662 12.6137 0.0628662 11.4147V4.51767C0.0628662 3.32416 0.433509 2.26459 1.17211 1.49717C1.9135 0.726862 2.95668 0.322842 4.16 0.31543L4.16462 0.315402V0.315416L4.16883 0.315414L4.18157 0.315408L4.23048 0.315383L4.4146 0.315287L5.06908 0.314948L7.05098 0.313916L9.03119 0.312885L9.68355 0.312545L9.86631 0.31245L9.91446 0.312425L9.9268 0.312418L9.92993 0.312417L9.93071 0.312416L9.93091 0.312416L9.93137 1.06242L9.93097 0.312416ZM9.93169 1.81242C9.93165 1.81242 9.93162 1.81242 9.93158 1.81242L9.93149 1.81242L9.93137 1.81242L9.93071 1.81242L9.92758 1.81242L9.91524 1.81242L9.86709 1.81245L9.68434 1.81255L9.03197 1.81288L7.05176 1.81392L4.16722 1.81541C3.30157 1.82118 2.66953 2.10443 2.25287 2.53735C1.8331 2.97349 1.56287 3.63367 1.56287 4.51767V11.4147C1.56287 12.3036 1.8353 12.9667 2.25834 13.4035C2.67854 13.8373 3.31681 14.1199 4.19237 14.1199H4.19312L4.19625 14.1199L4.20859 14.1199L4.25673 14.1199L4.43946 14.1198L5.09176 14.1196L7.07179 14.1188L9.9545 14.1177C9.95519 14.1177 9.95588 14.1177 9.95657 14.1177C10.8221 14.1119 11.4543 13.8285 11.8712 13.3954C12.2913 12.959 12.5616 12.2986 12.5616 11.4147V4.51767C12.5616 3.62884 12.2891 2.96574 11.8659 2.52893C11.4455 2.09508 10.8071 1.81249 9.93169 1.81242ZM3.62217 4.89469C3.62217 4.48048 3.95796 4.14469 4.37217 4.14469H6.43842C6.85264 4.14469 7.18842 4.48048 7.18842 4.89469C7.18842 5.3089 6.85264 5.64469 6.43842 5.64469H4.37217C3.95796 5.64469 3.62217 5.3089 3.62217 4.89469ZM3.62209 8.02754C3.62209 7.61333 3.95787 7.27754 4.37209 7.27754H9.78708C10.2013 7.27754 10.5371 7.61333 10.5371 8.02754C10.5371 8.44176 10.2013 8.77754 9.78708 8.77754H4.37209C3.95787 8.77754 3.62209 8.44176 3.62209 8.02754ZM3.62209 11.1673C3.62209 10.7531 3.95787 10.4173 4.37209 10.4173H9.78708C10.2013 10.4173 10.5371 10.7531 10.5371 11.1673C10.5371 11.5815 10.2013 11.9173 9.78708 11.9173H4.37209C3.95787 11.9173 3.62209 11.5815 3.62209 11.1673Z" fill="#2A344A"/>
</svg>
