<svg width="18" height="18" viewBox="0 0 18 18" fill="none" xmlns="http://www.w3.org/2000/svg">
<path fill-rule="evenodd" clip-rule="evenodd" d="M0.75 4.5C0.75 2.42893 2.42893 0.75 4.5 0.75H6C7.39264 0.75 8.60798 1.50914 9.25476 2.63619C10.7138 1.64666 12.7155 1.79827 14.0082 3.09099L15.0689 4.15165C16.2798 5.36256 16.4895 7.19556 15.6979 8.62189C16.6232 9.13278 17.25 10.1182 17.25 11.25V13.5C17.25 15.5711 15.5711 17.25 13.5 17.25H6H5.24999H4.5C2.42893 17.25 0.75 15.5711 0.75 13.5V4.5ZM5.24999 15.75L6 15.75C7.24264 15.75 8.25 14.7426 8.25 13.5V4.5C8.25 3.25736 7.24264 2.25 6 2.25H4.5C3.25736 2.25 2.25 3.25736 2.25 4.5V13.5C2.25 14.7426 3.25736 15.75 4.5 15.75L5.24999 15.75ZM9.00027 15.75L13.5 15.75C14.7426 15.75 15.75 14.7426 15.75 13.5L15.75 11.25C15.75 10.5798 15.3105 10.0123 14.7039 9.81991L9.63691 14.8869L9.52696 14.777C9.39955 15.1288 9.221 15.4561 9.00027 15.75ZM9.75 4.5C9.75 4.39243 9.74547 4.28592 9.73659 4.18065L9.76559 4.15165C10.6443 3.27297 12.0689 3.27297 12.9476 4.15165L14.0082 5.21231C14.8869 6.09099 14.8869 7.51561 14.0082 8.39429L9.75 12.6525V4.5Z" fill="#2A344A"/>
</svg>
