<svg width="18" height="19" viewBox="0 0 18 19" fill="none" xmlns="http://www.w3.org/2000/svg">
<path fill-rule="evenodd" clip-rule="evenodd" d="M7.64667 1.88062C7.0382 1.62158 6.43533 1.36492 5.88649 1.58088C5.79063 1.6186 5.69562 1.658 5.6015 1.69907C5.06118 1.93479 4.81635 2.54231 4.56927 3.15542C4.38456 3.61375 4.1986 4.0752 3.88699 4.3868C3.57537 4.69842 3.1139 4.88438 2.65555 5.06908C2.04242 5.31616 1.43489 5.56097 1.19916 6.10129C1.15806 6.19549 1.11862 6.29057 1.08087 6.3865C0.86492 6.93534 1.12158 7.53821 1.38062 8.14668C1.5742 8.6014 1.76912 9.05924 1.76912 9.5C1.76912 9.94075 1.5742 10.3986 1.38062 10.8533C1.12158 11.4618 0.864918 12.0647 1.08087 12.6135C1.11859 12.7093 1.15799 12.8043 1.19905 12.8985C1.43478 13.4388 2.04234 13.6836 2.6555 13.9307C3.11387 14.1154 3.57536 14.3014 3.88699 14.613C4.19861 14.9246 4.38457 15.3861 4.56928 15.8445C4.81635 16.4576 5.06117 17.0652 5.60152 17.3009C5.69564 17.342 5.79066 17.3814 5.88652 17.4191C6.43536 17.6351 7.03823 17.3784 7.6467 17.1194C8.10141 16.9258 8.55925 16.7309 9.00001 16.7309C9.44077 16.7309 9.89861 16.9258 10.3533 17.1194C10.9618 17.3784 11.5647 17.6351 12.1135 17.4191C12.2093 17.3814 12.3043 17.342 12.3984 17.301C12.9388 17.0652 13.1836 16.4575 13.4307 15.8443C13.6154 15.3858 13.8013 14.9242 14.113 14.6125C14.4246 14.3009 14.8862 14.1149 15.3446 13.9302C15.9579 13.6831 16.5655 13.4383 16.8012 12.8979C16.8422 12.8039 16.8815 12.7091 16.9191 12.6135C17.1351 12.0647 16.8784 11.4618 16.6194 10.8533C16.4258 10.3986 16.2309 9.94076 16.2309 9.5C16.2309 9.05924 16.4258 8.6014 16.6194 8.14668C16.8784 7.53821 17.1351 6.93535 16.9191 6.38651C16.8813 6.29049 16.8419 6.19533 16.8007 6.10105C16.565 5.56075 15.9575 5.31595 15.3444 5.06888C14.8861 4.88418 14.4246 4.69823 14.113 4.38662C13.8014 4.07503 13.6154 3.61362 13.4307 3.15533C13.1837 2.54226 12.9388 1.93479 12.3985 1.69907C12.3044 1.65801 12.2094 1.61859 12.1135 1.58087C11.5646 1.36492 10.9618 1.62158 10.3533 1.88062C9.89859 2.0742 9.44075 2.26912 8.99999 2.26912C8.55923 2.26912 8.10139 2.0742 7.64667 1.88062ZM12.01 8.54995C12.3137 8.26831 12.3316 7.79378 12.05 7.49005C11.7683 7.18632 11.2938 7.16841 10.99 7.45005L8.26471 9.97719L7.00996 8.81369C6.70623 8.53205 6.23169 8.54996 5.95005 8.85369C5.66841 9.15742 5.68632 9.63195 5.99005 9.91359L7.75475 11.55C8.0424 11.8167 8.48701 11.8167 8.77466 11.55L12.01 8.54995Z" fill="#0AB258"/>
</svg>
