<svg width="16" height="16" viewBox="0 0 16 16" fill="none" xmlns="http://www.w3.org/2000/svg">
<path fill-rule="evenodd" clip-rule="evenodd" d="M8.56353 1.22495L10.3928 4.91045C10.4835 5.09645 10.6598 5.22545 10.8645 5.2562L14.958 5.84945C15.1238 5.8712 15.2738 5.95895 15.375 6.09245C15.5655 6.3407 15.537 6.6947 15.3083 6.9092L12.3428 9.7892C12.1928 9.92945 12.1253 10.1379 12.1643 10.3389L12.879 14.3987C12.9285 14.7362 12.6998 15.0497 12.3645 15.1052C12.225 15.1269 12.0825 15.1044 11.9573 15.0414L8.30628 13.1282C8.12328 13.0284 7.90278 13.0284 7.72053 13.1282L4.04553 15.0549C3.73878 15.2094 3.36678 15.0932 3.20028 14.7947C3.13653 14.6739 3.11328 14.5344 3.13578 14.3987L3.85053 10.3389C3.88503 10.1379 3.81828 9.93169 3.67203 9.7892L0.683282 6.90845C0.439532 6.66545 0.438782 6.27095 0.681782 6.02645L0.683282 6.02495C0.783032 5.9342 0.906782 5.8727 1.04028 5.84945L5.13378 5.2562C5.33703 5.2232 5.51328 5.0942 5.60553 4.91045L7.43478 1.22495C7.50753 1.07495 7.63803 0.960195 7.79628 0.907695C7.95453 0.854445 8.12778 0.866445 8.27778 0.942195C8.40078 1.0037 8.50053 1.1027 8.56353 1.22495Z" fill="#FFD64C"/>
</svg>
