<svg width="450" height="350" viewBox="0 0 450 350" fill="none" xmlns="http://www.w3.org/2000/svg">
<g opacity="0.4">
<g opacity="0.6">
<path d="M129.662 177.814H108.255V256.907H129.662V177.814Z" fill="#002C60"/>
<path d="M122.141 194.425H100.734V256.991H122.141V194.425Z" fill="#002C60"/>
</g>
<g opacity="0.8">
<path d="M78.4598 159.53L43.1948 164.689V294.042H97.6536V164.689V159.53H78.4598Z" fill="url(#paint0_linear_36_8389)"/>
<path d="M43.1948 164.689L68.6409 149.184L78.4598 159.53L43.1948 164.689Z" fill="#002C60"/>
<path d="M68.6409 149.184L97.6536 159.53H78.4598L68.6409 149.184Z" fill="#0034AE"/>
<path d="M97.6536 170.226H43.1948V177.429H97.6536V170.226Z" fill="url(#paint1_linear_36_8389)"/>
<g style="mix-blend-mode:soft-light" opacity="0.3">
<path d="M97.6536 170.226H43.1948V171.059H97.6536V170.226Z" fill="black"/>
</g>
<path d="M97.6536 186.2H43.1948V193.403H97.6536V186.2Z" fill="url(#paint2_linear_36_8389)"/>
<g style="mix-blend-mode:soft-light" opacity="0.3">
<path d="M97.6536 186.2H43.1948V187.033H97.6536V186.2Z" fill="black"/>
</g>
<path d="M97.6536 202.174H43.1948V209.377H97.6536V202.174Z" fill="url(#paint3_linear_36_8389)"/>
<g style="mix-blend-mode:soft-light" opacity="0.3">
<path d="M97.6536 202.174H43.1948V203.007H97.6536V202.174Z" fill="black"/>
</g>
<path d="M97.6536 218.148H43.1948V225.351H97.6536V218.148Z" fill="url(#paint4_linear_36_8389)"/>
<g style="mix-blend-mode:soft-light" opacity="0.3">
<path d="M97.6536 218.148H43.1948V218.981H97.6536V218.148Z" fill="black"/>
</g>
<path d="M97.6536 234.122H43.1948V241.325H97.6536V234.122Z" fill="url(#paint5_linear_36_8389)"/>
<g style="mix-blend-mode:soft-light" opacity="0.3">
<path d="M97.6536 234.122H43.1948V234.955H97.6536V234.122Z" fill="black"/>
</g>
<path d="M97.6536 250.096H43.1948V257.299H97.6536V250.096Z" fill="url(#paint6_linear_36_8389)"/>
<g style="mix-blend-mode:soft-light" opacity="0.3">
<path d="M97.6536 250.096H43.1948V250.929H97.6536V250.096Z" fill="black"/>
</g>
<path d="M97.6536 266.07H43.1948V273.273H97.6536V266.07Z" fill="url(#paint7_linear_36_8389)"/>
<g style="mix-blend-mode:soft-light" opacity="0.3">
<path d="M97.6536 266.07H43.1948V266.903H97.6536V266.07Z" fill="black"/>
</g>
<path d="M97.6536 282.044H43.1948V289.247H97.6536V282.044Z" fill="url(#paint8_linear_36_8389)"/>
<g style="mix-blend-mode:soft-light" opacity="0.3">
<path d="M97.6536 282.044H43.1948V282.877H97.6536V282.044Z" fill="black"/>
</g>
<g style="mix-blend-mode:soft-light" opacity="0.3">
<path d="M97.6535 159.53H78.4597V294.042H97.6535V159.53Z" fill="black"/>
</g>
</g>
<g opacity="0.5">
<path d="M417.646 306.117L395.323 341.446V205.492H417.646V306.117Z" fill="#002C60"/>
<path d="M412.247 187.278H391.707V287.91H412.247V187.278Z" fill="#002C60"/>
</g>
<g opacity="0.5">
<path d="M265.569 96.5511H240.708V108.815H265.569V96.5511Z" fill="#002C60"/>
<path d="M265.569 96.5512L288.802 81.3892L311.957 96.5512V108.815H265.569V96.5512Z" fill="#0034AE"/>
<path d="M288.802 81.3892H264.434L240.708 96.5512H265.569L288.802 81.3892Z" fill="#D2E8FF"/>
<path d="M321.91 107.506H232.708V340.354H321.91V107.506Z" fill="#002C60"/>
<path d="M321.91 107.506H232.708V117.74H321.91V107.506Z" fill="#D2E8FF"/>
<path d="M321.91 126.91H232.708V137.144H321.91V126.91Z" fill="#D2E8FF"/>
<path d="M321.91 146.307H232.708V156.541H321.91V146.307Z" fill="#D2E8FF"/>
<path d="M321.91 165.704H232.708V175.938H321.91V165.704Z" fill="#D2E8FF"/>
<path d="M321.91 185.101H232.708V195.335H321.91V185.101Z" fill="#D2E8FF"/>
<path d="M321.91 204.505H232.708V214.739H321.91V204.505Z" fill="#D2E8FF"/>
<path d="M321.91 223.902H232.708V234.136H321.91V223.902Z" fill="#D2E8FF"/>
<path d="M321.91 243.299H232.708V253.533H321.91V243.299Z" fill="#D2E8FF"/>
<path d="M321.91 262.696H232.708V272.93H321.91V262.696Z" fill="#D2E8FF"/>
<path d="M321.91 282.1H232.708V292.334H321.91V282.1Z" fill="#D2E8FF"/>
<path d="M321.91 301.497H232.708V311.731H321.91V301.497Z" fill="#D2E8FF"/>
<path d="M321.91 320.894H232.708V331.128H321.91V320.894Z" fill="#D2E8FF"/>
<g style="mix-blend-mode:soft-light" opacity="0.3">
<path d="M262.306 107.506H232.708V340.354H262.306V107.506Z" fill="black"/>
</g>
</g>
<g opacity="0.5">
<path d="M218.279 58.9401H135.047V341.425H218.279V58.9401Z" fill="#D2E8FF"/>
<g opacity="0.4">
<path d="M198.366 53.8721L189.104 71.9251H184.924L194.186 53.8721H198.366Z" fill="white"/>
<path d="M200.953 53.8721L191.691 71.9251H190.091L199.353 53.8721H200.953Z" fill="white"/>
</g>
<g opacity="0.4">
<path d="M203.033 87.451L195.187 102.746H191.642L199.494 87.451H203.033Z" fill="white"/>
<path d="M205.225 87.451L197.379 102.746H196.019L203.871 87.451H205.225Z" fill="white"/>
</g>
<g opacity="0.4">
<path d="M179.151 107.919L171.701 122.451H168.339L175.789 107.919H179.151Z" fill="white"/>
<path d="M181.238 107.919L173.78 122.451H172.497L179.948 107.919H181.238Z" fill="white"/>
</g>
<g opacity="0.4">
<path d="M210.716 128.275L203.265 142.807H199.903L207.353 128.275H210.716Z" fill="white"/>
<path d="M212.802 128.275L205.352 142.807H204.062L211.512 128.275H212.802Z" fill="white"/>
</g>
<g opacity="0.4">
<path d="M179.151 148.946L171.701 163.478H168.339L175.789 148.946H179.151Z" fill="white"/>
<path d="M181.238 148.946L173.78 163.478H172.497L179.948 148.946H181.238Z" fill="white"/>
</g>
<g opacity="0.4">
<path d="M198.994 168.987L191.543 183.519H188.181L195.631 168.987H198.994Z" fill="white"/>
<path d="M201.08 168.987L193.63 183.519H192.34L199.79 168.987H201.08Z" fill="white"/>
</g>
<g opacity="0.4">
<path d="M174.506 199.171L166.781 214.221H163.299L171.024 199.171H174.506Z" fill="white"/>
<path d="M176.663 199.171L168.945 214.221H167.605L175.331 199.171H176.663Z" fill="white"/>
</g>
<g opacity="0.4">
<path d="M198.113 229.747L190.394 244.797H186.905L194.63 229.747H198.113Z" fill="white"/>
<path d="M200.269 229.747L192.551 244.797H191.212L198.937 229.747H200.269Z" fill="white"/>
</g>
<g opacity="0.4">
<path d="M175.338 261.275L167.62 276.325H164.13L171.856 261.275H175.338Z" fill="white"/>
<path d="M177.495 261.275L169.777 276.325H168.444L176.163 261.275H177.495Z" fill="white"/>
</g>
<g opacity="0.4">
<path d="M207.043 281.337L199.318 296.394H195.836L203.561 281.337H207.043Z" fill="white"/>
<path d="M209.2 281.337L201.482 296.394H200.142L207.861 281.337H209.2Z" fill="white"/>
</g>
<path d="M220.14 53.8721H133.179V60.1791H220.14V53.8721Z" fill="url(#paint9_linear_36_8389)"/>
<path d="M220.14 67.165H133.179V72.317H220.14V67.165Z" fill="url(#paint10_linear_36_8389)"/>
<path d="M220.14 77.035H133.179V82.187H220.14V77.035Z" fill="url(#paint11_linear_36_8389)"/>
<path d="M220.14 86.905H133.179V92.057H220.14V86.905Z" fill="url(#paint12_linear_36_8389)"/>
<path d="M220.14 97.6011H133.179V102.753H220.14V97.6011Z" fill="url(#paint13_linear_36_8389)"/>
<path d="M220.14 107.604H133.179V112.756H220.14V107.604Z" fill="url(#paint14_linear_36_8389)"/>
<path d="M220.14 117.614H133.179V122.766H220.14V117.614Z" fill="url(#paint15_linear_36_8389)"/>
<path d="M220.14 127.617H133.179V132.769H220.14V127.617Z" fill="url(#paint16_linear_36_8389)"/>
<path d="M220.14 138.313H133.179V143.465H220.14V138.313Z" fill="url(#paint17_linear_36_8389)"/>
<path d="M220.14 148.316H133.179V153.468H220.14V148.316Z" fill="url(#paint18_linear_36_8389)"/>
<path d="M220.14 158.326H133.179V163.478H220.14V158.326Z" fill="url(#paint19_linear_36_8389)"/>
<path d="M220.14 168.336H133.179V173.488H220.14V168.336Z" fill="url(#paint20_linear_36_8389)"/>
<path d="M220.14 179.025H133.179V184.177H220.14V179.025Z" fill="url(#paint21_linear_36_8389)"/>
<path d="M220.14 189.035H133.179V194.187H220.14V189.035Z" fill="url(#paint22_linear_36_8389)"/>
<path d="M220.14 199.038H133.179V204.19H220.14V199.038Z" fill="url(#paint23_linear_36_8389)"/>
<path d="M220.14 209.048H133.179V214.2H220.14V209.048Z" fill="url(#paint24_linear_36_8389)"/>
<path d="M220.14 219.737H133.179V224.889H220.14V219.737Z" fill="url(#paint25_linear_36_8389)"/>
<path d="M220.14 229.747H133.179V234.899H220.14V229.747Z" fill="url(#paint26_linear_36_8389)"/>
<path d="M220.14 239.75H133.179V244.902H220.14V239.75Z" fill="url(#paint27_linear_36_8389)"/>
<path d="M220.14 250.579H133.179V255.731H220.14V250.579Z" fill="url(#paint28_linear_36_8389)"/>
<path d="M220.14 261.275H133.179V266.427H220.14V261.275Z" fill="url(#paint29_linear_36_8389)"/>
<path d="M220.14 271.278H133.179V276.43H220.14V271.278Z" fill="url(#paint30_linear_36_8389)"/>
<path d="M220.14 281.288H133.179V286.44H220.14V281.288Z" fill="url(#paint31_linear_36_8389)"/>
<path d="M220.14 291.291H133.179V296.443H220.14V291.291Z" fill="url(#paint32_linear_36_8389)"/>
<path d="M220.14 301.301H133.179V306.453H220.14V301.301Z" fill="url(#paint33_linear_36_8389)"/>
<path d="M218.279 341.439V339.535H135.047V341.439H218.279Z" fill="#0034AE"/>
<path d="M213.69 330.33V315.651H180.35V330.33H213.69Z" fill="#0034AE"/>
<path d="M212.069 316.939H181.978V329.049H212.069V316.939Z" fill="#D2E8FF"/>
<g opacity="0.4">
<path d="M200.784 316.939L194.56 329.063H191.755L197.972 316.939H200.784Z" fill="white"/>
<path d="M202.518 316.939L196.301 329.063H195.223L201.447 316.939H202.518Z" fill="white"/>
</g>
<path d="M171.673 315.658H159.126V339.542H171.673V315.658Z" fill="#0034AE"/>
<path d="M170.82 331.387C170.82 331.488 170.79 331.587 170.733 331.671C170.676 331.755 170.596 331.821 170.502 331.859C170.408 331.898 170.305 331.908 170.205 331.888C170.105 331.869 170.013 331.82 169.941 331.748C169.869 331.677 169.82 331.586 169.801 331.487C169.781 331.388 169.791 331.285 169.83 331.192C169.869 331.098 169.935 331.018 170.019 330.962C170.104 330.906 170.203 330.876 170.305 330.876C170.442 330.876 170.573 330.93 170.669 331.026C170.766 331.122 170.82 331.252 170.82 331.387Z" fill="#002C60"/>
<g style="mix-blend-mode:soft-light" opacity="0.3">
<path d="M152.549 53.8721H135.047V341.425H152.549V53.8721Z" fill="black"/>
</g>
</g>
<g opacity="0.45">
<path d="M386.343 118.132H328.945V312.802H386.343V118.132Z" fill="url(#paint34_linear_36_8389)"/>
<g style="mix-blend-mode:soft-light" opacity="0.3">
<path d="M386.343 118.132H371.336V312.802H386.343V118.132Z" fill="black"/>
</g>
<path d="M362.039 131.887H328.945V297.325H362.039V131.887Z" fill="url(#paint35_linear_36_8389)"/>
<g style="mix-blend-mode:soft-light" opacity="0.8">
<path d="M362.039 131.887H328.945V133.616H362.039V131.887Z" fill="black"/>
</g>
<path opacity="0.5" d="M362.039 139.615H328.945V141.162H362.039V139.615Z" fill="url(#paint36_linear_36_8389)"/>
<path opacity="0.5" d="M362.039 147.84H328.945V149.387H362.039V147.84Z" fill="url(#paint37_linear_36_8389)"/>
<path opacity="0.5" d="M362.039 156.058H328.945V157.605H362.039V156.058Z" fill="url(#paint38_linear_36_8389)"/>
<path opacity="0.5" d="M362.039 164.283H328.945V165.83H362.039V164.283Z" fill="url(#paint39_linear_36_8389)"/>
<path opacity="0.5" d="M362.039 172.508H328.945V174.055H362.039V172.508Z" fill="url(#paint40_linear_36_8389)"/>
<path opacity="0.5" d="M362.039 180.733H328.945V182.28H362.039V180.733Z" fill="url(#paint41_linear_36_8389)"/>
<path opacity="0.5" d="M362.039 188.958H328.945V190.505H362.039V188.958Z" fill="url(#paint42_linear_36_8389)"/>
<path opacity="0.5" d="M362.039 197.183H328.945V198.73H362.039V197.183Z" fill="url(#paint43_linear_36_8389)"/>
<path opacity="0.5" d="M362.039 206.08H328.945V207.627H362.039V206.08Z" fill="url(#paint44_linear_36_8389)"/>
<path opacity="0.5" d="M362.039 214.305H328.945V215.852H362.039V214.305Z" fill="url(#paint45_linear_36_8389)"/>
<path opacity="0.5" d="M362.039 222.53H328.945V224.077H362.039V222.53Z" fill="url(#paint46_linear_36_8389)"/>
<path opacity="0.5" d="M362.039 230.755H328.945V232.302H362.039V230.755Z" fill="url(#paint47_linear_36_8389)"/>
<path opacity="0.5" d="M362.039 238.98H328.945V240.527H362.039V238.98Z" fill="url(#paint48_linear_36_8389)"/>
<path opacity="0.5" d="M362.039 247.205H328.945V248.752H362.039V247.205Z" fill="url(#paint49_linear_36_8389)"/>
<path opacity="0.5" d="M362.039 255.43H328.945V256.977H362.039V255.43Z" fill="url(#paint50_linear_36_8389)"/>
<path opacity="0.5" d="M362.039 263.655H328.945V265.202H362.039V263.655Z" fill="url(#paint51_linear_36_8389)"/>
<path opacity="0.5" d="M362.039 271.88H328.945V273.427H362.039V271.88Z" fill="url(#paint52_linear_36_8389)"/>
<path opacity="0.5" d="M362.039 280.098H328.945V281.645H362.039V280.098Z" fill="url(#paint53_linear_36_8389)"/>
<path opacity="0.5" d="M362.039 288.323H328.945V289.87H362.039V288.323Z" fill="url(#paint54_linear_36_8389)"/>
</g>
</g>
<path d="M421.058 239.316H406.671V268.044H421.058V239.316Z" fill="url(#paint55_linear_36_8389)"/>
<path d="M375.192 230.825H315.524V337.862H375.192V230.825Z" fill="url(#paint56_linear_36_8389)"/>
<path d="M422.15 337.862H375.192V230.825L422.15 266.343V337.862Z" fill="url(#paint57_linear_36_8389)"/>
<path d="M375.199 224.266H312.93V230.825H375.199V224.266Z" fill="url(#paint58_linear_36_8389)"/>
<path d="M375.192 230.825L422.15 266.343H425.379L427.162 264.005L375.192 224.266V230.825Z" fill="url(#paint59_linear_36_8389)"/>
<path d="M343.775 265.657V236.684H323.01V265.657H343.775Z" fill="#0062FF"/>
<path d="M342.239 238.21H324.546V264.131H342.239V238.21Z" fill="#D2E8FF"/>
<g opacity="0.5">
<path d="M340.843 238.21L327.232 264.131H324.546V254.814L333.273 238.21H340.843Z" fill="white"/>
<path d="M342.239 238.546V245.756L332.589 264.131H328.804L342.239 238.546Z" fill="white"/>
</g>
<path opacity="0.1" d="M342.239 238.21H324.546V239.036H342.239V238.21Z" fill="black"/>
<path d="M363.173 265.657V236.684H342.408V265.657H363.173Z" fill="#0062FF"/>
<path d="M361.637 238.21H343.944V264.131H361.637V238.21Z" fill="#D2E8FF"/>
<g opacity="0.5">
<path d="M360.241 238.21L346.63 264.131H343.944V254.814L352.671 238.21H360.241Z" fill="white"/>
<path d="M361.637 238.546V245.756L351.987 264.131H348.202L361.637 238.546Z" fill="white"/>
</g>
<path opacity="0.1" d="M361.637 238.21H343.944V239.036H361.637V238.21Z" fill="black"/>
<path d="M343.775 299.705V270.732H323.01V299.705H343.775Z" fill="#0062FF"/>
<path d="M342.239 272.251H324.546V298.172H342.239V272.251Z" fill="#D2E8FF"/>
<g opacity="0.5">
<path d="M340.843 272.251L327.232 298.172H324.546V288.862L333.273 272.251H340.843Z" fill="white"/>
<path d="M342.239 272.594V279.804L332.589 298.172H328.804L342.239 272.594Z" fill="white"/>
</g>
<path opacity="0.1" d="M342.239 272.251H324.546V273.077H342.239V272.251Z" fill="black"/>
<path d="M363.173 299.698V270.725H342.408V299.698H363.173Z" fill="#0062FF"/>
<path d="M361.637 272.251H343.944V298.172H361.637V272.251Z" fill="#D2E8FF"/>
<g opacity="0.5">
<path d="M360.241 272.251L346.63 298.172H343.944V288.862L352.671 272.251H360.241Z" fill="white"/>
<path d="M361.637 272.594V279.804L351.987 298.172H348.202L361.637 272.594Z" fill="white"/>
</g>
<path opacity="0.1" d="M361.637 272.251H343.944V273.077H361.637V272.251Z" fill="black"/>
<path d="M343.775 333.746V304.773H323.01V333.746H343.775Z" fill="#0062FF"/>
<path d="M342.239 306.299H324.546V332.22H342.239V306.299Z" fill="#D2E8FF"/>
<g opacity="0.5">
<path d="M340.843 306.299L327.232 332.22H324.546V322.91L333.273 306.299H340.843Z" fill="white"/>
<path d="M342.239 306.635V313.852L332.589 332.22H328.804L342.239 306.635Z" fill="white"/>
</g>
<path opacity="0.1" d="M342.239 306.299H324.546V307.125H342.239V306.299Z" fill="black"/>
<path d="M363.173 333.746V304.773H342.408V333.746H363.173Z" fill="#0062FF"/>
<path d="M361.637 306.299H343.944V332.22H361.637V306.299Z" fill="#D2E8FF"/>
<g opacity="0.5">
<path d="M360.241 306.299L346.63 332.22H343.944V322.91L352.671 306.299H360.241Z" fill="white"/>
<path d="M361.637 306.635V313.852L351.987 332.22H348.202L361.637 306.635Z" fill="white"/>
</g>
<path opacity="0.1" d="M361.637 306.299H343.944V307.125H361.637V306.299Z" fill="black"/>
<path opacity="0.3" d="M407.341 337.862V310.415H390.367V337.862H407.341Z" fill="#0062FF"/>
<path d="M406.664 311.08H391.037V337.197H406.664V311.08Z" fill="#0062FF"/>
<path d="M405.149 314.118H400.003V323.316H405.149V314.118Z" fill="#0075FF"/>
<path d="M398.163 314.118H393.018V323.316H398.163V314.118Z" fill="#0075FF"/>
<path d="M405.149 325.85H400.003V335.643H405.149V325.85Z" fill="#0075FF"/>
<path d="M398.163 325.85H393.018V335.643H398.163V325.85Z" fill="#0075FF"/>
<path d="M405.191 324.87C405.191 325.006 405.137 325.136 405.04 325.231C404.944 325.327 404.813 325.381 404.677 325.381C404.54 325.381 404.409 325.327 404.313 325.231C404.216 325.136 404.162 325.006 404.162 324.87C404.162 324.735 404.216 324.605 404.313 324.509C404.409 324.413 404.54 324.359 404.677 324.359C404.813 324.359 404.944 324.413 405.04 324.509C405.137 324.605 405.191 324.735 405.191 324.87Z" fill="#0075FF"/>
<path opacity="0.1" d="M375.192 230.825H315.524V232.253H375.192V230.825Z" fill="black"/>
<path opacity="0.1" d="M375.192 232.253L422.15 268.044V266.343L375.192 230.825V232.253Z" fill="black"/>
<path d="M409.237 297.017V268.044H388.471V297.017H409.237Z" fill="#0062FF"/>
<path d="M407.7 269.57H390.008V295.491H407.7V269.57Z" fill="#D2E8FF"/>
<g opacity="0.5">
<path d="M406.305 269.57L392.694 295.491H390.008V286.181L398.734 269.57H406.305Z" fill="white"/>
<path d="M407.7 269.906V277.123L398.051 295.491H394.265L407.7 269.906Z" fill="white"/>
</g>
<path opacity="0.1" d="M407.7 269.57H390.008V270.396H407.7V269.57Z" fill="black"/>
<path d="M408.68 281.848H389.028V283.052H408.68V281.848Z" fill="#0062FF"/>
<path d="M399.46 295.96V268.611H398.248V295.96H399.46Z" fill="#0062FF"/>
<path opacity="0.15" d="M329.981 224.266H326.153V285.488H329.981V224.266Z" fill="black"/>
<path opacity="0.15" d="M325.942 285.488H322.114V337.862H325.942V285.488Z" fill="black"/>
<path d="M133.68 255.654H75.175V338.051H133.68V255.654Z" fill="url(#paint60_linear_36_8389)"/>
<path d="M137.761 249.781H72.1158V257.271H137.761V249.781Z" fill="url(#paint61_linear_36_8389)"/>
<path d="M137.754 293.104H30.0983V300.594H137.754V293.104Z" fill="url(#paint62_linear_36_8389)"/>
<path d="M75.175 300.594H37.6615V338.044H75.175V300.594Z" fill="url(#paint63_linear_36_8389)"/>
<path opacity="0.3" d="M112.075 338.044V312.767H96.4483V338.044H112.075Z" fill="#0062FF"/>
<path d="M111.455 313.383H97.0615V337.435H111.455V313.383Z" fill="#0062FF"/>
<path d="M110.059 316.183H105.323V324.653H110.059V316.183Z" fill="#0075FF"/>
<path d="M103.624 316.183H98.8871V324.653H103.624V316.183Z" fill="#0075FF"/>
<path d="M110.059 326.984H105.323V336H110.059V326.984Z" fill="#0075FF"/>
<path d="M103.624 326.984H98.8871V336H103.624V326.984Z" fill="#0075FF"/>
<path d="M110.102 326.088C110.103 326.183 110.076 326.276 110.024 326.355C109.972 326.434 109.897 326.496 109.809 326.533C109.721 326.57 109.624 326.58 109.531 326.562C109.437 326.544 109.351 326.498 109.283 326.431C109.216 326.364 109.17 326.279 109.152 326.186C109.134 326.093 109.144 325.997 109.181 325.91C109.218 325.822 109.281 325.748 109.36 325.696C109.44 325.645 109.534 325.618 109.629 325.619C109.755 325.619 109.875 325.668 109.963 325.756C110.052 325.844 110.102 325.964 110.102 326.088Z" fill="#0075FF"/>
<path d="M112.78 287.847V264.544H96.0816V287.847H112.78Z" fill="#0062FF"/>
<path d="M111.54 265.769H97.3081V286.622H111.54V265.769Z" fill="#D2E8FF"/>
<g opacity="0.5">
<path d="M110.419 265.769L99.4721 286.622H97.3152V279.132L104.329 265.769H110.419Z" fill="white"/>
<path d="M111.547 266.042V271.845L103.779 286.622H100.734L111.547 266.042Z" fill="white"/>
</g>
<path opacity="0.1" d="M111.54 265.769H97.3081V266.434H111.54V265.769Z" fill="black"/>
<path d="M64.0521 330.974V307.671H47.3536V330.974H64.0521Z" fill="#0062FF"/>
<path d="M62.8186 308.896H48.5872V329.749H62.8186V308.896Z" fill="#D2E8FF"/>
<g opacity="0.5">
<path d="M61.6979 308.896L50.7511 329.749H48.5872V322.259L55.6077 308.896H61.6979Z" fill="white"/>
<path d="M62.8186 309.169V314.972L55.0579 329.749H52.0128L62.8186 309.169Z" fill="white"/>
</g>
<path opacity="0.1" d="M62.8186 308.896H48.5872V309.561H62.8186V308.896Z" fill="black"/>
<path opacity="0.1" d="M133.68 257.271H75.175V258.79H133.68V257.271Z" fill="black"/>
<path opacity="0.1" d="M133.68 300.594H37.6615V302.113H133.68V300.594Z" fill="black"/>
<path d="M75.175 283.185H37.6615V284.403H75.175V283.185Z" fill="#0062FF"/>
<path d="M41.5391 283.969H41.0027V293.104H41.5391V283.969Z" fill="#0062FF"/>
<path d="M49.2715 283.969H48.7351V293.104H49.2715V283.969Z" fill="#0062FF"/>
<path d="M57.004 283.969H56.4677V293.104H57.004V283.969Z" fill="#0062FF"/>
<path d="M64.7366 283.969H64.2002V293.104H64.7366V283.969Z" fill="#0062FF"/>
<path opacity="0.15" d="M129.147 249.69H125.736V335.552H129.147V249.69Z" fill="black"/>
<path d="M275.614 160.426H155.453V207.473H275.614V160.426Z" fill="url(#paint64_linear_36_8389)"/>
<path d="M222.233 222.845H129.641V322.168H222.233V222.845Z" fill="url(#paint65_linear_36_8389)"/>
<path d="M326.153 207.473H222.233V285.488H326.153V207.473Z" fill="url(#paint66_linear_36_8389)"/>
<path d="M322.262 285.488H222.233V337.862H322.262V285.488Z" fill="url(#paint67_linear_36_8389)"/>
<path opacity="0.1" d="M317.258 290.472H222.233V285.481H322.262L317.258 290.472Z" fill="black"/>
<path opacity="0.1" d="M326.153 207.473H222.233V209.23H326.153V207.473Z" fill="black"/>
<path opacity="0.1" d="M275.614 160.426H155.453V162.183H275.614V160.426Z" fill="black"/>
<path opacity="0.1" d="M222.233 222.845H129.613V224.602H222.233V222.845Z" fill="black"/>
<path d="M222.233 207.473H138.501L128.083 220.388H222.233V207.473Z" fill="url(#paint68_linear_36_8389)"/>
<path d="M222.233 191.576H317.018L327.436 204.498H222.233V191.576Z" fill="url(#paint69_linear_36_8389)"/>
<path d="M222.226 220.388H128.076V222.845H222.226V220.388Z" fill="#0034AE"/>
<path d="M327.436 204.498H222.233V207.473H327.436V204.498Z" fill="#0034AE"/>
<path d="M278.356 157.451H152.789V160.426H278.356V157.451Z" fill="#0034AE"/>
<path d="M152.789 157.451L164.546 144.732H269.115L278.356 157.451H152.789Z" fill="url(#paint70_linear_36_8389)"/>
<path d="M259.437 132.076H246.157V149.667H259.437V132.076Z" fill="url(#paint71_linear_36_8389)"/>
<path d="M222.219 322.168H129.627V330.015H222.219V322.168Z" fill="url(#paint72_linear_36_8389)"/>
<path d="M222.219 329.994H129.627V332.626H222.219V329.994Z" fill="url(#paint73_linear_36_8389)"/>
<path d="M222.219 332.605H129.627V335.237H222.219V332.605Z" fill="url(#paint74_linear_36_8389)"/>
<path d="M222.219 335.23H129.627V337.862H222.219V335.23Z" fill="url(#paint75_linear_36_8389)"/>
<path d="M210.272 267.645H177.643V322.161H210.272V267.645Z" fill="#003282"/>
<path opacity="0.1" d="M222.219 329.994H129.627V330.365H222.219V329.994Z" fill="black"/>
<path opacity="0.1" d="M222.219 332.612H129.627V332.983H222.219V332.612Z" fill="black"/>
<path opacity="0.1" d="M222.219 335.23H129.627V335.601H222.219V335.23Z" fill="black"/>
<path d="M207.1 273.987H196.357V293.188H207.1V273.987Z" fill="#002C60"/>
<path d="M192.516 273.987H181.773V293.188H192.516V273.987Z" fill="#002C60"/>
<path d="M207.1 298.473H196.357V318.913H207.1V298.473Z" fill="#002C60"/>
<path d="M192.516 298.473H181.773V318.913H192.516V298.473Z" fill="#002C60"/>
<path d="M207.198 296.429C207.2 296.641 207.138 296.849 207.02 297.027C206.902 297.204 206.733 297.342 206.536 297.424C206.339 297.506 206.121 297.528 205.911 297.487C205.701 297.446 205.509 297.343 205.357 297.193C205.206 297.043 205.103 296.852 205.062 296.643C205.02 296.435 205.042 296.219 205.125 296.023C205.207 295.827 205.347 295.66 205.525 295.543C205.704 295.425 205.913 295.364 206.127 295.365C206.411 295.367 206.682 295.48 206.883 295.679C207.083 295.878 207.197 296.147 207.198 296.429Z" fill="#002C60"/>
<path d="M132.467 218.568H222.233" stroke="white" stroke-width="0.296411" stroke-miterlimit="10"/>
<path d="M224.08 203.105H323.045" stroke="white" stroke-width="0.296411" stroke-miterlimit="10"/>
<path d="M159.027 155.365H273.238" stroke="white" stroke-width="0.296411" stroke-miterlimit="10"/>
<path d="M309.413 278.054V217.714H240.257V278.054H309.413Z" fill="#0034AE"/>
<path d="M307.631 219H242V275.84H307.631V219Z" fill="#D2E8FF"/>
<path opacity="0.1" d="M243.746 219.457H242.019V276.297H243.746V219.457Z" fill="black"/>
<g opacity="0.4">
<path d="M290.67 219.457L261.516 276.297H248.37L277.517 219.457H290.67Z" fill="white"/>
<path d="M298.818 219.457L269.672 276.297H264.625L293.778 219.457H298.818Z" fill="white"/>
</g>
<path d="M275.712 217.707H273.95V278.047H275.712V217.707Z" fill="#0034AE"/>
<path d="M308.334 250.509V248.759H240.581V250.509H308.334Z" fill="#0034AE"/>
<path d="M202.335 202.867V168.525H163.256V202.867H202.335Z" fill="#0034AE"/>
<path d="M200.573 170.275H165.026V201.117H200.573V170.275Z" fill="#D2E8FF"/>
<path opacity="0.1" d="M165.703 170.275H165.019V201.117H165.703V170.275Z" fill="black"/>
<g opacity="0.4">
<path d="M193.418 170.275L177.594 201.117H169.297L185.122 170.275H193.418Z" fill="white"/>
<path d="M198.557 170.275L182.739 201.117H179.553L195.378 170.275H198.557Z" fill="white"/>
</g>
<path d="M201.672 186.571V184.821H163.834V186.571H201.672Z" fill="#0034AE"/>
<path d="M181.879 202.223H183.641V168.518H181.879V202.223Z" fill="#0034AE"/>
<path d="M266.189 185.836V167.93H245.811V185.836H266.189Z" fill="#0034AE"/>
<path d="M265.273 168.84H246.735V184.926H265.273V168.84Z" fill="#D2E8FF"/>
<path opacity="0.1" d="M247.095 168.84H246.735V184.926H247.095V168.84Z" fill="black"/>
<g opacity="0.4">
<path d="M261.544 168.833L253.297 184.919H248.969L257.216 168.833H261.544Z" fill="white"/>
<path d="M264.223 168.833L255.976 184.919H254.319L262.566 168.833H264.223Z" fill="white"/>
</g>
<path d="M265.844 177.331V176.421H246.115V177.331H265.844Z" fill="#0034AE"/>
<path d="M255.532 185.5H256.448V167.923H255.532V185.5Z" fill="#0034AE"/>
<path d="M210.272 261.73V231.658H146.776V261.73H210.272Z" fill="#0034AE"/>
<path d="M208.509 233.408H148.539V261.73H208.509V233.408Z" fill="#D2E8FF"/>
<g opacity="0.4">
<path d="M172.984 233.408L158.456 261.737H148.539V255.423L159.831 233.408H172.984Z" fill="white"/>
<path d="M181.139 233.408L166.612 261.737H161.565L176.092 233.408H181.139Z" fill="white"/>
</g>
<g opacity="0.4">
<path d="M204.774 233.408L190.246 261.737H177.1L191.621 233.408H204.774Z" fill="white"/>
<path d="M208.509 233.408V242.018L198.401 261.737H193.354L207.882 233.408H208.509Z" fill="white"/>
</g>
<path d="M209.757 261.737V259.987H146.776V261.737H209.757Z" fill="#0034AE"/>
<path d="M179.405 233.415H177.643V261.737H179.405V233.415Z" fill="#0034AE"/>
<path d="M306.219 337.862V293.188H243.45V337.862H306.219Z" fill="#0034AE"/>
<path d="M303.28 296.107H246.382V332.129H303.28V296.107Z" fill="#D2E8FF"/>
<path d="M278.06 336.497H272.265C271.922 336.495 271.593 336.359 271.35 336.118C271.108 335.877 270.97 335.55 270.969 335.209C270.969 334.867 271.105 334.538 271.348 334.296C271.591 334.053 271.921 333.916 272.265 333.914H278.06C278.405 333.914 278.737 334.05 278.982 334.293C279.226 334.536 279.364 334.866 279.364 335.209C279.362 335.551 279.224 335.879 278.979 336.12C278.735 336.362 278.404 336.497 278.06 336.497Z" stroke="white" stroke-width="0.592823" stroke-miterlimit="10"/>
<g opacity="0.4">
<path d="M285.249 296.107L266.768 332.129H253.622L272.089 296.107H285.249Z" fill="white"/>
<path d="M293.398 296.107L274.923 332.129H269.876L288.351 296.107H293.398Z" fill="white"/>
</g>
<path d="M305.233 309.309V307.559H244.416V309.309H305.233Z" fill="#0034AE"/>
<path d="M305.233 323.036V321.286H244.416V323.036H305.233Z" fill="#0034AE"/>
<path d="M146.91 322.168H172.963V267.918H146.91V322.168Z" fill="#0034AE"/>
<path d="M171.447 269.423H146.91V320.663H171.447V269.423Z" fill="#D2E8FF"/>
<g opacity="0.4">
<path d="M171.454 269.423V278.593L149.878 320.656H146.917V300.79L163.003 269.423H171.454Z" fill="white"/>
<path d="M171.454 284.641V294.476L158.026 320.656H152.979L171.454 284.641Z" fill="white"/>
</g>
<path d="M146.91 321.727H148.426V267.918H146.91V321.727Z" fill="#0034AE"/>
<path d="M171.447 295.792V294.287H146.91V295.792H171.447Z" fill="#0034AE"/>
<path d="M427.479 337.862H32.3539V341.446H427.479V337.862Z" fill="url(#paint76_linear_36_8389)"/>
<path d="M104.702 265.118H100.297V348.614H104.702V265.118Z" fill="url(#paint77_linear_36_8389)"/>
<path d="M142.491 273.686H94.7284V279.118H142.491V273.686Z" fill="url(#paint78_linear_36_8389)"/>
<path d="M141.934 282.219H109.051V312.515H141.934V282.219Z" fill="#010172"/>
<path d="M115.24 279.111H114.134V282.219H115.24V279.111Z" fill="white"/>
<path d="M136.788 279.111H135.682V282.219H136.788V279.111Z" fill="white"/>
<path d="M116.991 292.601H120.221V294.131H116.991V292.601ZM117.131 296.531H115.151V289.531H120.641V291.061H117.131V296.531ZM125.039 296.671C124.479 296.671 123.962 296.581 123.489 296.401C123.015 296.221 122.602 295.968 122.249 295.641C121.902 295.308 121.632 294.921 121.438 294.481C121.245 294.041 121.148 293.558 121.148 293.031C121.148 292.504 121.245 292.021 121.438 291.581C121.632 291.141 121.902 290.757 122.249 290.431C122.602 290.097 123.015 289.841 123.489 289.661C123.962 289.481 124.479 289.391 125.039 289.391C125.605 289.391 126.122 289.481 126.589 289.661C127.062 289.841 127.472 290.097 127.819 290.431C128.165 290.757 128.435 291.141 128.629 291.581C128.829 292.021 128.929 292.504 128.929 293.031C128.929 293.558 128.829 294.044 128.629 294.491C128.435 294.931 128.165 295.314 127.819 295.641C127.472 295.968 127.062 296.221 126.589 296.401C126.122 296.581 125.605 296.671 125.039 296.671ZM125.039 295.031C125.305 295.031 125.552 294.984 125.779 294.891C126.012 294.798 126.212 294.664 126.379 294.491C126.552 294.311 126.685 294.098 126.779 293.851C126.879 293.604 126.929 293.331 126.929 293.031C126.929 292.724 126.879 292.451 126.779 292.211C126.685 291.964 126.552 291.754 126.379 291.581C126.212 291.401 126.012 291.264 125.779 291.171C125.552 291.077 125.305 291.031 125.039 291.031C124.772 291.031 124.522 291.077 124.289 291.171C124.062 291.264 123.862 291.401 123.689 291.581C123.522 291.754 123.389 291.964 123.289 292.211C123.195 292.451 123.149 292.724 123.149 293.031C123.149 293.331 123.195 293.604 123.289 293.851C123.389 294.098 123.522 294.311 123.689 294.491C123.862 294.664 124.062 294.798 124.289 294.891C124.522 294.984 124.772 295.031 125.039 295.031ZM129.966 296.531V289.531H133.166C133.806 289.531 134.356 289.634 134.816 289.841C135.283 290.047 135.643 290.347 135.896 290.741C136.149 291.127 136.276 291.587 136.276 292.121C136.276 292.648 136.149 293.104 135.896 293.491C135.643 293.871 135.283 294.164 134.816 294.371C134.356 294.571 133.806 294.671 133.166 294.671H131.066L131.946 293.841V296.531H129.966ZM134.296 296.531L132.556 293.981H134.666L136.416 296.531H134.296ZM131.946 294.051L131.066 293.141H133.046C133.459 293.141 133.766 293.051 133.966 292.871C134.173 292.691 134.276 292.441 134.276 292.121C134.276 291.794 134.173 291.541 133.966 291.361C133.766 291.181 133.459 291.091 133.046 291.091H131.066L131.946 290.181V294.051Z" fill="#A9CAF5"/>
<path d="M115.151 305.491C114.577 305.491 114.024 305.421 113.491 305.281C112.964 305.134 112.534 304.948 112.201 304.721L112.851 303.261C113.164 303.461 113.524 303.628 113.931 303.761C114.344 303.888 114.754 303.951 115.161 303.951C115.434 303.951 115.654 303.928 115.821 303.881C115.988 303.828 116.108 303.761 116.181 303.681C116.261 303.594 116.301 303.494 116.301 303.381C116.301 303.221 116.228 303.094 116.081 303.001C115.934 302.908 115.744 302.831 115.511 302.771C115.278 302.711 115.017 302.651 114.731 302.591C114.451 302.531 114.167 302.454 113.881 302.361C113.601 302.268 113.344 302.148 113.111 302.001C112.877 301.848 112.687 301.651 112.541 301.411C112.394 301.164 112.321 300.854 112.321 300.481C112.321 300.061 112.434 299.681 112.661 299.341C112.894 299.001 113.241 298.728 113.701 298.521C114.161 298.314 114.734 298.211 115.421 298.211C115.881 298.211 116.331 298.264 116.771 298.371C117.218 298.471 117.614 298.621 117.961 298.821L117.351 300.291C117.018 300.111 116.688 299.978 116.361 299.891C116.034 299.798 115.718 299.751 115.411 299.751C115.138 299.751 114.917 299.781 114.751 299.841C114.584 299.894 114.464 299.968 114.391 300.061C114.317 300.154 114.281 300.261 114.281 300.381C114.281 300.534 114.351 300.658 114.491 300.751C114.637 300.838 114.827 300.911 115.061 300.971C115.301 301.024 115.561 301.081 115.841 301.141C116.128 301.201 116.411 301.278 116.691 301.371C116.978 301.458 117.238 301.578 117.471 301.731C117.704 301.878 117.891 302.074 118.031 302.321C118.178 302.561 118.251 302.864 118.251 303.231C118.251 303.638 118.134 304.014 117.901 304.361C117.674 304.701 117.331 304.974 116.871 305.181C116.418 305.388 115.844 305.491 115.151 305.491ZM118.326 305.351L121.416 298.351H123.366L126.466 305.351H124.406L121.986 299.321H122.766L120.346 305.351H118.326ZM120.016 303.991L120.526 302.531H123.946L124.456 303.991H120.016ZM127.027 305.351V298.351H129.007V303.781H132.347V305.351H127.027ZM134.951 301.061H138.201V302.541H134.951V301.061ZM135.091 303.821H138.751V305.351H133.131V298.351H138.621V299.881H135.091V303.821Z" fill="#A9CAF5"/>
<path d="M138.839 307.335H112.153V308.7H138.839V307.335Z" fill="#A9CAF5"/>
<path opacity="0.1" d="M100.297 279.111L104.702 281.204V279.111H100.297Z" fill="black"/>
<path d="M96.0394 350C96.0394 350 96.9205 343.217 90.7599 337.281C90.7599 337.281 96.7795 341.551 97.3646 344.89C97.2601 338.844 94.9077 333.049 90.7599 328.622C90.7599 328.622 98.0977 334.565 99.7118 341.656C99.7118 341.656 97.9496 325.598 95.2358 321.433C95.2358 321.433 102.644 335.503 102.207 341.243C102.207 341.243 105.731 327.376 110.278 323.414C110.278 323.414 104.554 337.799 104.554 342.594C104.554 342.594 108.368 334.362 112.477 331.443C112.477 331.443 105.583 341.761 106.465 346.038C106.465 346.038 107.931 340.928 114.218 337.589C114.218 337.589 107.762 346.871 108.347 350H96.0394Z" fill="#A9CAF5"/>
<path opacity="0.5" d="M374.663 42.9802C373.527 42.3631 372.317 41.8926 371.061 41.5802C367.739 40.7579 364.233 41.0967 361.133 42.5397C358.033 43.9826 355.528 46.4416 354.039 49.5032C352.55 52.5648 352.168 56.0422 352.957 59.3505C353.747 62.6589 355.659 65.5964 358.373 67.6691L350.81 97.8951L353.502 105L362.292 101.171L359.473 96.4671L364.202 93.6671L361.038 89.3271L365.929 86.7651L363.293 82.1101L367.396 80.9061L369.989 70.5531C373.035 70.0366 375.844 68.5926 378.027 66.421C380.21 64.2494 381.659 61.4576 382.174 58.4321C382.689 55.4066 382.244 52.297 380.901 49.5336C379.557 46.7703 377.383 44.4899 374.677 43.0081L374.663 42.9802ZM369.834 46.1371H369.919C370.913 46.3873 371.776 46.9967 372.341 47.8459C372.906 48.6951 373.132 49.7232 372.974 50.729C372.817 51.7347 372.287 52.6458 371.488 53.2841C370.69 53.9223 369.68 54.2419 368.657 54.1802C368.42 54.1674 368.184 54.1322 367.952 54.0752C366.89 53.8245 365.971 53.1648 365.398 52.2413C364.825 51.3178 364.644 50.2061 364.897 49.1506C365.149 48.0952 365.813 47.1825 366.743 46.6135C367.673 46.0444 368.793 45.8655 369.856 46.1162L369.834 46.1371Z" fill="#002C60"/>
<path opacity="0.15" d="M375.452 43.6241C375.199 43.4001 374.938 43.1832 374.663 42.9802C373.527 42.3631 372.317 41.8926 371.061 41.5802C367.739 40.7579 364.233 41.0967 361.133 42.5397C358.033 43.9826 355.528 46.4416 354.039 49.5032C352.55 52.5648 352.168 56.0422 352.957 59.3505C353.747 62.6589 355.659 65.5964 358.373 67.6691L356.963 73.3531L361.016 68.7962C364.28 69.8519 367.81 69.7565 371.011 68.5262C374.212 67.2958 376.887 65.0057 378.584 62.0431C380.281 59.0805 380.896 55.6269 380.326 52.2659C379.755 48.9048 378.034 45.8425 375.452 43.5962V43.6241ZM372.633 52.9271C372.094 53.5358 371.385 53.9718 370.596 54.18C369.807 54.3882 368.974 54.3592 368.201 54.0967C367.429 53.8341 366.752 53.3498 366.258 52.7051C365.763 52.0605 365.472 51.2844 365.421 50.4753C365.371 49.6662 365.563 48.8605 365.974 48.1602C366.385 47.4598 366.996 46.8964 367.73 46.5413C368.464 46.1861 369.288 46.0553 370.096 46.1653C370.905 46.2753 371.663 46.6212 372.273 47.1591C372.681 47.5116 373.015 47.9406 373.256 48.4216C373.497 48.9025 373.64 49.4258 373.676 49.9617C373.713 50.4976 373.643 51.0354 373.47 51.5442C373.297 52.0531 373.024 52.5231 372.668 52.9271H372.633Z" fill="black"/>
<path d="M375.664 63.4481C377.445 61.4502 378.648 59.0112 379.147 56.3895C379.646 53.7678 379.423 51.0608 378.499 48.5551C377.576 46.0494 375.988 43.8383 373.903 42.1557C371.817 40.4731 369.313 39.3817 366.654 38.9969C363.996 38.6122 361.282 38.9485 358.8 39.9702C356.318 40.9919 354.16 42.6611 352.555 44.8009C350.95 46.9407 349.958 49.4716 349.683 52.1258C349.408 54.7799 349.861 57.4585 350.993 59.8781L330.22 83.2161L329.304 90.7551L338.883 91.3921L338.545 85.9111L344.057 85.5751L343.268 80.2761H348.801L348.625 74.9351L352.854 75.7471L359.966 67.7601C362.722 68.6334 365.674 68.6908 368.461 67.925C371.249 67.1592 373.752 65.6036 375.664 63.4481ZM371.223 46.0951C371.834 46.6303 372.27 47.3332 372.479 48.115C372.687 48.8969 372.657 49.7224 372.392 50.4872C372.128 51.2521 371.641 51.9219 370.993 52.4119C370.345 52.9019 369.566 53.1901 368.753 53.24C367.94 53.29 367.131 53.0995 366.427 52.6926C365.724 52.2856 365.157 51.6806 364.8 50.9539C364.443 50.2273 364.31 49.4117 364.42 48.6104C364.529 47.8091 364.876 47.058 365.415 46.4521C366.137 45.6424 367.154 45.1501 368.241 45.0831C369.329 45.0162 370.398 45.3801 371.216 46.0951H371.223Z" fill="url(#paint79_linear_36_8389)"/>
<path d="M101.763 144.879C96.8577 146.243 91.6079 145.621 87.1643 143.147C82.7207 140.674 79.446 136.551 78.058 131.684L75.8658 123.984L76.7117 123.746L78.9039 131.446C79.5546 133.749 80.6561 135.902 82.1455 137.782C83.6348 139.662 85.4827 141.232 87.5835 142.403C89.6843 143.573 91.9967 144.32 94.3887 144.602C96.7806 144.884 99.205 144.695 101.523 144.046L101.763 144.879Z" fill="url(#paint80_linear_36_8389)"/>
<path d="M113.859 114.744L111.744 115.332L109.559 107.632C108.941 105.4 107.886 103.311 106.452 101.485C105.018 99.6594 103.235 98.1335 101.205 96.995C99.1751 95.8566 96.9385 95.1281 94.624 94.8516C92.3094 94.575 89.9626 94.7557 87.7187 95.3834C85.4747 96.0111 83.378 97.0734 81.5491 98.5091C79.7202 99.9448 78.1954 101.726 77.0623 103.749C75.9292 105.772 75.2102 107.998 74.9468 110.298C74.6834 112.599 74.8808 114.928 75.5275 117.152L77.7197 124.852L75.605 125.44L73.4129 117.74C71.9837 112.702 72.6282 107.307 75.2045 102.742C77.7809 98.1757 82.0782 94.8134 87.1509 93.394C92.2237 91.9747 97.6564 92.6148 102.254 95.1734C106.852 97.7319 110.237 101.999 111.666 107.037L113.859 114.744Z" fill="url(#paint81_linear_36_8389)"/>
<path d="M69.0467 122.123L74.3793 120.63L77.0869 130.171L71.7543 131.663C71.5654 131.716 71.3631 131.692 71.1918 131.597C71.0206 131.502 70.8944 131.343 70.8412 131.155L68.5466 123.07C68.4933 122.883 68.5173 122.682 68.6133 122.512C68.7092 122.342 68.8693 122.216 69.0582 122.163L69.0467 122.123Z" fill="url(#paint82_linear_36_8389)"/>
<path d="M70.9749 115.577L77.7594 113.678L83.6334 134.376L76.849 136.275C76.5359 136.363 76.2006 136.323 75.9168 136.165C75.633 136.007 75.424 135.744 75.3358 135.433L70.1195 117.053C70.0397 116.745 70.0845 116.418 70.2444 116.142C70.4042 115.866 70.6665 115.664 70.9749 115.577Z" fill="url(#paint83_linear_36_8389)"/>
<path d="M120.409 118.079L115.077 119.571L112.373 110.044L117.706 108.552C117.895 108.499 118.097 108.523 118.268 108.618C118.439 108.713 118.565 108.872 118.619 109.06L120.913 117.145C120.967 117.333 120.943 117.534 120.847 117.704C120.751 117.874 120.591 117.999 120.402 118.052L120.409 118.079Z" fill="url(#paint84_linear_36_8389)"/>
<path d="M114.796 106.946L118.758 120.946C119.009 121.838 118.895 122.793 118.439 123.601C117.983 124.409 117.223 125.005 116.326 125.258L111.765 126.539L105.894 105.833L110.447 104.559C111.217 104.344 112.037 104.395 112.774 104.704C113.51 105.013 114.119 105.562 114.5 106.26C114.625 106.477 114.724 106.707 114.796 106.946Z" fill="url(#paint85_linear_36_8389)"/>
<path d="M106.203 139.284L95.1239 142.385C94.8691 142.456 94.7208 142.719 94.7926 142.972L96.2898 148.247C96.3616 148.5 96.6264 148.648 96.8812 148.576L107.96 145.476C108.215 145.404 108.363 145.141 108.292 144.888L106.794 139.613C106.723 139.36 106.458 139.212 106.203 139.284Z" fill="url(#paint86_linear_36_8389)"/>
<path opacity="0.15" d="M114.5 106.225C112.926 108.88 110.555 110.98 107.719 112.231L105.894 105.798L110.447 104.524C111.217 104.309 112.037 104.36 112.774 104.669C113.51 104.978 114.119 105.527 114.5 106.225Z" fill="black"/>
<path d="M96.6949 82.9291C94.1433 83.6428 91.8276 85.0149 89.9834 86.9058C88.1392 88.7968 86.8322 91.1392 86.1955 93.6946C85.5588 96.2501 85.6151 98.9274 86.3587 101.454C87.1022 103.981 88.5065 106.267 90.4286 108.08L91.8384 118.37L99.6695 112.14C101.412 112.27 103.163 112.092 104.843 111.615C106.741 111.084 108.515 110.187 110.063 108.976C111.612 107.764 112.905 106.261 113.869 104.554C114.833 102.846 115.448 100.966 115.68 99.0219C115.913 97.0777 115.757 95.1071 115.223 93.2226C114.688 91.3381 113.785 89.5767 112.565 88.0388C111.345 86.5009 109.832 85.2168 108.112 84.2596C106.392 83.3025 104.499 82.6911 102.542 82.4604C100.584 82.2297 98.5996 82.3842 96.702 82.9151L96.6949 82.9291Z" fill="url(#paint87_linear_36_8389)"/>
<path d="M93.4853 102.632L93.1902 101.589L94.8111 98.915C94.9269 98.7255 95.0053 98.5645 95.0465 98.4321C95.0933 98.2981 95.1152 98.1832 95.1122 98.0873C95.1133 97.9842 95.1027 97.8935 95.0805 97.815C95.0266 97.6246 94.92 97.4941 94.7609 97.4237C94.6074 97.3517 94.4044 97.351 94.1521 97.4214C93.939 97.481 93.7534 97.5842 93.5953 97.7311C93.4372 97.878 93.3262 98.0632 93.2624 98.2866L91.8306 97.9429C91.9446 97.512 92.1774 97.1266 92.5289 96.7866C92.8805 96.4466 93.3451 96.1959 93.9227 96.0346C94.377 95.9077 94.7958 95.8693 95.1791 95.9194C95.5625 95.9695 95.8875 96.1024 96.1544 96.3181C96.4268 96.5322 96.6146 96.8213 96.7177 97.1855C96.7717 97.3759 96.8004 97.5735 96.8039 97.7781C96.8058 97.977 96.7639 98.2033 96.6784 98.4569C96.5969 98.7034 96.4525 98.9946 96.2451 99.3307L94.9523 101.433L94.5081 100.922L97.6963 100.032L98.0699 101.351L93.4853 102.632ZM98.1767 100.103L97.8688 99.0156L99.4746 94.5933L101.204 94.1103L99.674 98.5114L98.8143 98.497L103.428 97.2082L103.803 98.5312L98.1767 100.103ZM101.618 100.36L101.298 99.231L100.974 97.8938L100.69 96.891L102.267 96.4504L103.246 99.9054L101.618 100.36ZM106.352 94.0272C106.707 93.9283 107.048 93.9118 107.376 93.9777C107.703 94.0381 107.99 94.1943 108.237 94.4465C108.49 94.6972 108.683 95.0584 108.817 95.5303L109.557 98.1427L107.954 98.5903L107.288 96.2392C107.196 95.9134 107.062 95.6963 106.885 95.5879C106.713 95.4724 106.509 95.4476 106.273 95.5135C106.104 95.5607 105.961 95.6432 105.842 95.7611C105.722 95.8734 105.645 96.0192 105.611 96.1985C105.577 96.3778 105.596 96.5938 105.667 96.8466L106.292 99.0544L104.69 99.5021L102.919 93.2494L104.522 92.8017L105.366 95.7848L104.888 95.5093C104.968 95.1291 105.137 94.8152 105.395 94.5675C105.651 94.3141 105.97 94.134 106.352 94.0272Z" fill="#0034AE"/>
<path d="M32.561 177.364C33.7674 168.479 27.4923 160.307 18.5451 159.112C9.59803 157.917 1.36697 164.151 0.160616 173.036C-1.04574 181.92 5.22943 190.092 14.1766 191.287C23.1237 192.482 31.3546 186.248 32.561 177.364Z" fill="url(#paint88_linear_36_8389)"/>
<path opacity="0.1" d="M8.49377 176.428L15.9091 182.21L26.5034 169.554L24.6636 168.147L15.5707 179.102L10.2419 174.776L8.49377 176.428Z" fill="black"/>
<path d="M8.4021 175.595L15.8174 181.37L26.4117 168.721L24.572 167.307L15.4861 178.262L10.1502 173.936L8.4021 175.595Z" fill="#0034AE"/>
<path d="M444.368 140.7L449.866 162.267C450.103 163.211 450.025 164.206 449.643 165.102C449.262 165.999 448.598 166.748 447.751 167.237C447.45 167.415 447.128 167.556 446.793 167.657L446.574 167.72L436.706 170.184L429.657 142.415L442.007 139.314C442.253 139.248 442.511 139.232 442.764 139.266C443.017 139.3 443.261 139.384 443.481 139.513C443.701 139.643 443.893 139.814 444.045 140.018C444.198 140.222 444.307 140.454 444.368 140.7Z" fill="url(#paint89_linear_36_8389)"/>
<path opacity="0.1" d="M447.942 167.377L436.763 170.177L429.714 142.408L438.574 140.182L443.846 160.874C444.167 162.138 444.688 163.343 445.39 164.444C446.049 165.491 446.862 166.435 447.801 167.244L447.942 167.377Z" fill="black"/>
<path d="M442.69 161.168L435.092 131.348C434.916 130.66 434.472 130.069 433.857 129.705C433.242 129.342 432.508 129.235 431.814 129.409L398.403 137.809C397.709 137.984 397.114 138.425 396.747 139.035C396.379 139.645 396.27 140.374 396.443 141.064L405.184 175.364C405.36 176.053 405.804 176.644 406.418 177.009C407.033 177.374 407.767 177.482 408.462 177.31L441.971 168.91L444.495 168.273L446.807 167.692C444.772 166.007 443.33 163.722 442.69 161.168Z" fill="url(#paint90_linear_36_8389)"/>
<path d="M436.332 142.576L401.11 151.424" stroke="#008BEA" stroke-width="0.705742" stroke-miterlimit="10"/>
<path d="M439.547 155.183L404.324 164.031" stroke="#008BEA" stroke-width="0.705742" stroke-miterlimit="10"/>
<path d="M408.095 137.123L417.005 172.102" stroke="#008BEA" stroke-width="0.705742" stroke-miterlimit="10"/>
<path d="M423.814 133.175L432.724 168.154" stroke="#008BEA" stroke-width="0.705742" stroke-miterlimit="10"/>
<path d="M412.183 153.188L414.573 148.043" stroke="#008BEA" stroke-width="0.705742" stroke-miterlimit="10"/>
<path d="M413.332 157.689L418.386 147.084" stroke="#008BEA" stroke-width="0.705742" stroke-miterlimit="10"/>
<path d="M425.195 158.788L428.424 151.27" stroke="#008BEA" stroke-width="0.705742" stroke-miterlimit="10"/>
<path d="M420.698 159.922L427.169 146.335" stroke="#008BEA" stroke-width="0.705742" stroke-miterlimit="10"/>
<path d="M415.687 161.182L422.947 145.936" stroke="#008BEA" stroke-width="0.705742" stroke-miterlimit="10"/>
<path d="M227.52 20.3211L224.158 16.6741V12.8661H222.142V14.4971L218.751 10.8151L209.976 20.3211H212.111V30.2261H225.384V20.3211H227.52Z" fill="url(#paint91_linear_36_8389)"/>
<path d="M234.186 37.4401L230.894 39.8947L236.772 47.6699L240.064 45.2154L234.186 37.4401Z" fill="url(#paint92_linear_36_8389)"/>
<path d="M235.585 48.5427L241.267 44.3061L262.132 71.9032C262.216 72.0146 262.252 72.1546 262.233 72.2924C262.213 72.4303 262.139 72.5547 262.027 72.6383L257.162 76.2654C257.05 76.349 256.909 76.385 256.77 76.3654C256.631 76.3458 256.506 76.2721 256.422 76.1608L235.557 48.5637L235.585 48.5427Z" fill="#003282"/>
<path d="M205.309 4.47313C201.752 7.12576 199.067 10.7663 197.593 14.9345C196.119 19.1027 195.923 23.6114 197.029 27.8903C198.136 32.1692 200.495 36.0262 203.808 38.9737C207.122 41.9211 211.241 43.8266 215.645 44.4492C220.049 45.0717 224.541 44.3834 228.551 42.4713C232.561 40.5591 235.91 37.5091 238.175 33.7067C240.439 29.9043 241.518 25.5204 241.274 21.1093C241.03 16.6983 239.474 12.4581 236.803 8.92512C235.03 6.57904 232.808 4.60281 230.266 3.10936C227.723 1.61591 224.909 0.634508 221.985 0.221094C219.06 -0.19232 216.082 -0.0296195 213.221 0.699951C210.36 1.42952 207.672 2.71166 205.309 4.47313ZM230.6 37.9191C227.496 40.2311 223.771 41.5774 219.897 41.7877C216.022 41.9979 212.172 41.0627 208.832 39.1003C205.493 37.1379 202.814 34.2363 201.135 30.7624C199.456 27.2884 198.851 23.3981 199.398 19.583C199.945 15.768 201.618 12.1996 204.207 9.32878C206.795 6.45798 210.182 4.41369 213.941 3.45432C217.699 2.49495 221.659 2.66354 225.32 3.93882C228.982 5.2141 232.181 7.53879 234.512 10.6191C237.634 14.7561 238.976 19.9544 238.243 25.0727C237.509 30.1911 234.761 34.8112 230.6 37.9191Z" fill="url(#paint93_linear_36_8389)"/>
<path opacity="0.2" d="M226.095 40.4097C236.164 36.4284 241.077 25.0947 237.068 15.0952C233.059 5.0957 221.646 0.217025 211.577 4.19833C201.508 8.17963 196.595 19.5133 200.604 29.5128C204.613 39.5122 216.026 44.391 226.095 40.4097Z" fill="url(#paint94_linear_36_8389)"/>
<defs>
<linearGradient id="paint0_linear_36_8389" x1="45.6689" y1="263.816" x2="85.9181" y2="207.027" gradientUnits="userSpaceOnUse">
<stop stop-color="#F4F4F4"/>
<stop offset="1" stop-color="#A9CAF5"/>
</linearGradient>
<linearGradient id="paint1_linear_36_8389" x1="43.1948" y1="173.824" x2="97.6536" y2="173.824" gradientUnits="userSpaceOnUse">
<stop stop-color="#A9CAF5"/>
<stop offset="1" stop-color="#F4F4F4"/>
</linearGradient>
<linearGradient id="paint2_linear_36_8389" x1="43.1948" y1="189.798" x2="97.6536" y2="189.798" gradientUnits="userSpaceOnUse">
<stop stop-color="#A9CAF5"/>
<stop offset="1" stop-color="#F4F4F4"/>
</linearGradient>
<linearGradient id="paint3_linear_36_8389" x1="43.1948" y1="205.779" x2="97.6536" y2="205.779" gradientUnits="userSpaceOnUse">
<stop stop-color="#A9CAF5"/>
<stop offset="1" stop-color="#F4F4F4"/>
</linearGradient>
<linearGradient id="paint4_linear_36_8389" x1="43.1948" y1="221.753" x2="97.6536" y2="221.753" gradientUnits="userSpaceOnUse">
<stop stop-color="#A9CAF5"/>
<stop offset="1" stop-color="#F4F4F4"/>
</linearGradient>
<linearGradient id="paint5_linear_36_8389" x1="43.1948" y1="237.727" x2="97.6536" y2="237.727" gradientUnits="userSpaceOnUse">
<stop stop-color="#A9CAF5"/>
<stop offset="1" stop-color="#F4F4F4"/>
</linearGradient>
<linearGradient id="paint6_linear_36_8389" x1="43.1948" y1="253.701" x2="97.6536" y2="253.701" gradientUnits="userSpaceOnUse">
<stop stop-color="#A9CAF5"/>
<stop offset="1" stop-color="#F4F4F4"/>
</linearGradient>
<linearGradient id="paint7_linear_36_8389" x1="43.1948" y1="269.675" x2="97.6536" y2="269.675" gradientUnits="userSpaceOnUse">
<stop stop-color="#A9CAF5"/>
<stop offset="1" stop-color="#F4F4F4"/>
</linearGradient>
<linearGradient id="paint8_linear_36_8389" x1="43.1948" y1="285.649" x2="97.6536" y2="285.649" gradientUnits="userSpaceOnUse">
<stop stop-color="#A9CAF5"/>
<stop offset="1" stop-color="#F4F4F4"/>
</linearGradient>
<linearGradient id="paint9_linear_36_8389" x1="133.179" y1="57.0221" x2="220.147" y2="57.0221" gradientUnits="userSpaceOnUse">
<stop stop-color="#F4F4F4"/>
<stop offset="1" stop-color="#A9CAF5"/>
</linearGradient>
<linearGradient id="paint10_linear_36_8389" x1="133.179" y1="69.741" x2="220.147" y2="69.741" gradientUnits="userSpaceOnUse">
<stop stop-color="#F4F4F4"/>
<stop offset="1" stop-color="#A9CAF5"/>
</linearGradient>
<linearGradient id="paint11_linear_36_8389" x1="133.179" y1="79.611" x2="220.147" y2="79.611" gradientUnits="userSpaceOnUse">
<stop stop-color="#F4F4F4"/>
<stop offset="1" stop-color="#A9CAF5"/>
</linearGradient>
<linearGradient id="paint12_linear_36_8389" x1="133.179" y1="89.481" x2="220.147" y2="89.481" gradientUnits="userSpaceOnUse">
<stop stop-color="#F4F4F4"/>
<stop offset="1" stop-color="#A9CAF5"/>
</linearGradient>
<linearGradient id="paint13_linear_36_8389" x1="133.179" y1="100.177" x2="220.147" y2="100.177" gradientUnits="userSpaceOnUse">
<stop stop-color="#F4F4F4"/>
<stop offset="1" stop-color="#A9CAF5"/>
</linearGradient>
<linearGradient id="paint14_linear_36_8389" x1="133.179" y1="110.18" x2="220.147" y2="110.18" gradientUnits="userSpaceOnUse">
<stop stop-color="#F4F4F4"/>
<stop offset="1" stop-color="#A9CAF5"/>
</linearGradient>
<linearGradient id="paint15_linear_36_8389" x1="133.179" y1="120.19" x2="220.147" y2="120.19" gradientUnits="userSpaceOnUse">
<stop stop-color="#F4F4F4"/>
<stop offset="1" stop-color="#A9CAF5"/>
</linearGradient>
<linearGradient id="paint16_linear_36_8389" x1="133.179" y1="130.193" x2="220.147" y2="130.193" gradientUnits="userSpaceOnUse">
<stop stop-color="#F4F4F4"/>
<stop offset="1" stop-color="#A9CAF5"/>
</linearGradient>
<linearGradient id="paint17_linear_36_8389" x1="133.179" y1="140.889" x2="220.147" y2="140.889" gradientUnits="userSpaceOnUse">
<stop stop-color="#F4F4F4"/>
<stop offset="1" stop-color="#A9CAF5"/>
</linearGradient>
<linearGradient id="paint18_linear_36_8389" x1="133.179" y1="150.892" x2="220.147" y2="150.892" gradientUnits="userSpaceOnUse">
<stop stop-color="#F4F4F4"/>
<stop offset="1" stop-color="#A9CAF5"/>
</linearGradient>
<linearGradient id="paint19_linear_36_8389" x1="133.179" y1="160.902" x2="220.147" y2="160.902" gradientUnits="userSpaceOnUse">
<stop stop-color="#F4F4F4"/>
<stop offset="1" stop-color="#A9CAF5"/>
</linearGradient>
<linearGradient id="paint20_linear_36_8389" x1="133.179" y1="170.905" x2="220.147" y2="170.905" gradientUnits="userSpaceOnUse">
<stop stop-color="#F4F4F4"/>
<stop offset="1" stop-color="#A9CAF5"/>
</linearGradient>
<linearGradient id="paint21_linear_36_8389" x1="133.179" y1="181.601" x2="220.147" y2="181.601" gradientUnits="userSpaceOnUse">
<stop stop-color="#F4F4F4"/>
<stop offset="1" stop-color="#A9CAF5"/>
</linearGradient>
<linearGradient id="paint22_linear_36_8389" x1="133.179" y1="191.604" x2="220.147" y2="191.604" gradientUnits="userSpaceOnUse">
<stop stop-color="#F4F4F4"/>
<stop offset="1" stop-color="#A9CAF5"/>
</linearGradient>
<linearGradient id="paint23_linear_36_8389" x1="133.179" y1="201.614" x2="220.147" y2="201.614" gradientUnits="userSpaceOnUse">
<stop stop-color="#F4F4F4"/>
<stop offset="1" stop-color="#A9CAF5"/>
</linearGradient>
<linearGradient id="paint24_linear_36_8389" x1="133.179" y1="211.624" x2="220.147" y2="211.624" gradientUnits="userSpaceOnUse">
<stop stop-color="#F4F4F4"/>
<stop offset="1" stop-color="#A9CAF5"/>
</linearGradient>
<linearGradient id="paint25_linear_36_8389" x1="133.179" y1="222.313" x2="220.147" y2="222.313" gradientUnits="userSpaceOnUse">
<stop stop-color="#F4F4F4"/>
<stop offset="1" stop-color="#A9CAF5"/>
</linearGradient>
<linearGradient id="paint26_linear_36_8389" x1="133.179" y1="232.323" x2="220.147" y2="232.323" gradientUnits="userSpaceOnUse">
<stop stop-color="#F4F4F4"/>
<stop offset="1" stop-color="#A9CAF5"/>
</linearGradient>
<linearGradient id="paint27_linear_36_8389" x1="133.179" y1="242.326" x2="220.147" y2="242.326" gradientUnits="userSpaceOnUse">
<stop stop-color="#F4F4F4"/>
<stop offset="1" stop-color="#A9CAF5"/>
</linearGradient>
<linearGradient id="paint28_linear_36_8389" x1="133.179" y1="253.155" x2="220.147" y2="253.155" gradientUnits="userSpaceOnUse">
<stop stop-color="#F4F4F4"/>
<stop offset="1" stop-color="#A9CAF5"/>
</linearGradient>
<linearGradient id="paint29_linear_36_8389" x1="133.179" y1="263.851" x2="220.147" y2="263.851" gradientUnits="userSpaceOnUse">
<stop stop-color="#F4F4F4"/>
<stop offset="1" stop-color="#A9CAF5"/>
</linearGradient>
<linearGradient id="paint30_linear_36_8389" x1="133.179" y1="273.854" x2="220.147" y2="273.854" gradientUnits="userSpaceOnUse">
<stop stop-color="#F4F4F4"/>
<stop offset="1" stop-color="#A9CAF5"/>
</linearGradient>
<linearGradient id="paint31_linear_36_8389" x1="133.179" y1="283.864" x2="220.147" y2="283.864" gradientUnits="userSpaceOnUse">
<stop stop-color="#F4F4F4"/>
<stop offset="1" stop-color="#A9CAF5"/>
</linearGradient>
<linearGradient id="paint32_linear_36_8389" x1="133.179" y1="293.867" x2="220.147" y2="293.867" gradientUnits="userSpaceOnUse">
<stop stop-color="#F4F4F4"/>
<stop offset="1" stop-color="#A9CAF5"/>
</linearGradient>
<linearGradient id="paint33_linear_36_8389" x1="133.179" y1="303.877" x2="220.147" y2="303.877" gradientUnits="userSpaceOnUse">
<stop stop-color="#F4F4F4"/>
<stop offset="1" stop-color="#A9CAF5"/>
</linearGradient>
<linearGradient id="paint34_linear_36_8389" x1="328.945" y1="215.467" x2="386.343" y2="215.467" gradientUnits="userSpaceOnUse">
<stop stop-color="#F4F4F4"/>
<stop offset="1" stop-color="#A9CAF5"/>
</linearGradient>
<linearGradient id="paint35_linear_36_8389" x1="329.924" y1="264.285" x2="364.585" y2="152.114" gradientUnits="userSpaceOnUse">
<stop stop-color="#F4F4F4"/>
<stop offset="1" stop-color="#A9CAF5"/>
</linearGradient>
<linearGradient id="paint36_linear_36_8389" x1="328.945" y1="140.385" x2="362.039" y2="140.385" gradientUnits="userSpaceOnUse">
<stop stop-color="#F4F4F4"/>
<stop offset="1" stop-color="#A9CAF5"/>
</linearGradient>
<linearGradient id="paint37_linear_36_8389" x1="328.945" y1="148.61" x2="362.039" y2="148.61" gradientUnits="userSpaceOnUse">
<stop stop-color="#F4F4F4"/>
<stop offset="1" stop-color="#A9CAF5"/>
</linearGradient>
<linearGradient id="paint38_linear_36_8389" x1="328.945" y1="156.835" x2="362.039" y2="156.835" gradientUnits="userSpaceOnUse">
<stop stop-color="#F4F4F4"/>
<stop offset="1" stop-color="#A9CAF5"/>
</linearGradient>
<linearGradient id="paint39_linear_36_8389" x1="328.945" y1="165.06" x2="362.039" y2="165.06" gradientUnits="userSpaceOnUse">
<stop stop-color="#F4F4F4"/>
<stop offset="1" stop-color="#A9CAF5"/>
</linearGradient>
<linearGradient id="paint40_linear_36_8389" x1="328.945" y1="173.285" x2="362.039" y2="173.285" gradientUnits="userSpaceOnUse">
<stop stop-color="#F4F4F4"/>
<stop offset="1" stop-color="#A9CAF5"/>
</linearGradient>
<linearGradient id="paint41_linear_36_8389" x1="328.945" y1="181.51" x2="362.039" y2="181.51" gradientUnits="userSpaceOnUse">
<stop stop-color="#F4F4F4"/>
<stop offset="1" stop-color="#A9CAF5"/>
</linearGradient>
<linearGradient id="paint42_linear_36_8389" x1="328.945" y1="189.735" x2="362.039" y2="189.735" gradientUnits="userSpaceOnUse">
<stop stop-color="#F4F4F4"/>
<stop offset="1" stop-color="#A9CAF5"/>
</linearGradient>
<linearGradient id="paint43_linear_36_8389" x1="328.945" y1="197.953" x2="362.039" y2="197.953" gradientUnits="userSpaceOnUse">
<stop stop-color="#F4F4F4"/>
<stop offset="1" stop-color="#A9CAF5"/>
</linearGradient>
<linearGradient id="paint44_linear_36_8389" x1="328.945" y1="206.857" x2="362.039" y2="206.857" gradientUnits="userSpaceOnUse">
<stop stop-color="#F4F4F4"/>
<stop offset="1" stop-color="#A9CAF5"/>
</linearGradient>
<linearGradient id="paint45_linear_36_8389" x1="328.945" y1="215.082" x2="362.039" y2="215.082" gradientUnits="userSpaceOnUse">
<stop stop-color="#F4F4F4"/>
<stop offset="1" stop-color="#A9CAF5"/>
</linearGradient>
<linearGradient id="paint46_linear_36_8389" x1="328.945" y1="223.307" x2="362.039" y2="223.307" gradientUnits="userSpaceOnUse">
<stop stop-color="#F4F4F4"/>
<stop offset="1" stop-color="#A9CAF5"/>
</linearGradient>
<linearGradient id="paint47_linear_36_8389" x1="328.945" y1="231.532" x2="362.039" y2="231.532" gradientUnits="userSpaceOnUse">
<stop stop-color="#F4F4F4"/>
<stop offset="1" stop-color="#A9CAF5"/>
</linearGradient>
<linearGradient id="paint48_linear_36_8389" x1="328.945" y1="239.757" x2="362.039" y2="239.757" gradientUnits="userSpaceOnUse">
<stop stop-color="#F4F4F4"/>
<stop offset="1" stop-color="#A9CAF5"/>
</linearGradient>
<linearGradient id="paint49_linear_36_8389" x1="328.945" y1="247.975" x2="362.039" y2="247.975" gradientUnits="userSpaceOnUse">
<stop stop-color="#F4F4F4"/>
<stop offset="1" stop-color="#A9CAF5"/>
</linearGradient>
<linearGradient id="paint50_linear_36_8389" x1="328.945" y1="256.2" x2="362.039" y2="256.2" gradientUnits="userSpaceOnUse">
<stop stop-color="#F4F4F4"/>
<stop offset="1" stop-color="#A9CAF5"/>
</linearGradient>
<linearGradient id="paint51_linear_36_8389" x1="328.945" y1="264.425" x2="362.039" y2="264.425" gradientUnits="userSpaceOnUse">
<stop stop-color="#F4F4F4"/>
<stop offset="1" stop-color="#A9CAF5"/>
</linearGradient>
<linearGradient id="paint52_linear_36_8389" x1="328.945" y1="272.65" x2="362.039" y2="272.65" gradientUnits="userSpaceOnUse">
<stop stop-color="#F4F4F4"/>
<stop offset="1" stop-color="#A9CAF5"/>
</linearGradient>
<linearGradient id="paint53_linear_36_8389" x1="328.945" y1="280.875" x2="362.039" y2="280.875" gradientUnits="userSpaceOnUse">
<stop stop-color="#F4F4F4"/>
<stop offset="1" stop-color="#A9CAF5"/>
</linearGradient>
<linearGradient id="paint54_linear_36_8389" x1="328.945" y1="289.1" x2="362.039" y2="289.1" gradientUnits="userSpaceOnUse">
<stop stop-color="#F4F4F4"/>
<stop offset="1" stop-color="#A9CAF5"/>
</linearGradient>
<linearGradient id="paint55_linear_36_8389" x1="409.759" y1="243.726" x2="417.852" y2="263.624" gradientUnits="userSpaceOnUse">
<stop stop-color="#004CFF"/>
<stop offset="1" stop-color="#B0D2FF"/>
</linearGradient>
<linearGradient id="paint56_linear_36_8389" x1="322.157" y1="314.937" x2="359.248" y2="265.347" gradientUnits="userSpaceOnUse">
<stop stop-color="white"/>
<stop offset="1" stop-color="#B0D2FF"/>
</linearGradient>
<linearGradient id="paint57_linear_36_8389" x1="377.426" y1="250.572" x2="406.945" y2="323.166" gradientUnits="userSpaceOnUse">
<stop stop-color="white"/>
<stop offset="1" stop-color="#B0D2FF"/>
</linearGradient>
<linearGradient id="paint58_linear_36_8389" x1="340.279" y1="218.365" x2="347.739" y2="236.713" gradientUnits="userSpaceOnUse">
<stop stop-color="#B0D2FF"/>
<stop offset="1" stop-color="#004CFF"/>
</linearGradient>
<linearGradient id="paint59_linear_36_8389" x1="392.884" y1="227.304" x2="407.511" y2="263.271" gradientUnits="userSpaceOnUse">
<stop stop-color="#B0D2FF"/>
<stop offset="1" stop-color="#004CFF"/>
</linearGradient>
<linearGradient id="paint60_linear_36_8389" x1="95.5248" y1="325.269" x2="115.347" y2="261.106" gradientUnits="userSpaceOnUse">
<stop stop-color="white"/>
<stop offset="1" stop-color="#B0D2FF"/>
</linearGradient>
<linearGradient id="paint61_linear_36_8389" x1="102.475" y1="261.38" x2="107.959" y2="243.648" gradientUnits="userSpaceOnUse">
<stop stop-color="#B0D2FF"/>
<stop offset="1" stop-color="#004CFF"/>
</linearGradient>
<linearGradient id="paint62_linear_36_8389" x1="80.3207" y1="308.378" x2="88.3596" y2="282.355" gradientUnits="userSpaceOnUse">
<stop stop-color="#B0D2FF"/>
<stop offset="1" stop-color="#004CFF"/>
</linearGradient>
<linearGradient id="paint63_linear_36_8389" x1="52.0762" y1="333.193" x2="61.7507" y2="301.879" gradientUnits="userSpaceOnUse">
<stop stop-color="white"/>
<stop offset="1" stop-color="#B0D2FF"/>
</linearGradient>
<linearGradient id="paint64_linear_36_8389" x1="189.661" y1="216.496" x2="239.79" y2="152.563" gradientUnits="userSpaceOnUse">
<stop stop-color="#F4F4F4"/>
<stop offset="1" stop-color="#A9CAF5"/>
</linearGradient>
<linearGradient id="paint65_linear_36_8389" x1="131.248" y1="316.008" x2="209.629" y2="238.646" gradientUnits="userSpaceOnUse">
<stop stop-color="#F4F4F4"/>
<stop offset="1" stop-color="#A9CAF5"/>
</linearGradient>
<linearGradient id="paint66_linear_36_8389" x1="234.118" y1="277.529" x2="301.352" y2="224.702" gradientUnits="userSpaceOnUse">
<stop stop-color="#F4F4F4"/>
<stop offset="1" stop-color="#A9CAF5"/>
</linearGradient>
<linearGradient id="paint67_linear_36_8389" x1="236.437" y1="335.545" x2="293.229" y2="297.156" gradientUnits="userSpaceOnUse">
<stop stop-color="#F4F4F4"/>
<stop offset="1" stop-color="#A9CAF5"/>
</linearGradient>
<linearGradient id="paint68_linear_36_8389" x1="162.432" y1="236.39" x2="193.209" y2="197.136" gradientUnits="userSpaceOnUse">
<stop stop-color="#A9CAF5"/>
<stop offset="1" stop-color="#0034AE"/>
</linearGradient>
<linearGradient id="paint69_linear_36_8389" x1="289.147" y1="222.495" x2="255.295" y2="179.314" gradientUnits="userSpaceOnUse">
<stop stop-color="#A9CAF5"/>
<stop offset="1" stop-color="#0034AE"/>
</linearGradient>
<linearGradient id="paint70_linear_36_8389" x1="152.789" y1="151.088" x2="278.356" y2="151.088" gradientUnits="userSpaceOnUse">
<stop stop-color="#A9CAF5"/>
<stop offset="1" stop-color="#0034AE"/>
</linearGradient>
<linearGradient id="paint71_linear_36_8389" x1="247.912" y1="146.342" x2="256.955" y2="136.067" gradientUnits="userSpaceOnUse">
<stop stop-color="#A9CAF5"/>
<stop offset="1" stop-color="#0034AE"/>
</linearGradient>
<linearGradient id="paint72_linear_36_8389" x1="152.394" y1="348.985" x2="193.65" y2="308.267" gradientUnits="userSpaceOnUse">
<stop stop-color="#A9CAF5"/>
<stop offset="1" stop-color="#F4F4F4"/>
</linearGradient>
<linearGradient id="paint73_linear_36_8389" x1="153.607" y1="353.031" x2="192.741" y2="314.399" gradientUnits="userSpaceOnUse">
<stop stop-color="#F4F4F4"/>
<stop offset="1" stop-color="#A9CAF5"/>
</linearGradient>
<linearGradient id="paint74_linear_36_8389" x1="153.607" y1="355.642" x2="192.741" y2="317.011" gradientUnits="userSpaceOnUse">
<stop stop-color="#A9CAF5"/>
<stop offset="1" stop-color="#F4F4F4"/>
</linearGradient>
<linearGradient id="paint75_linear_36_8389" x1="153.607" y1="358.267" x2="192.741" y2="319.636" gradientUnits="userSpaceOnUse">
<stop stop-color="#F4F4F4"/>
<stop offset="1" stop-color="#A9CAF5"/>
</linearGradient>
<linearGradient id="paint76_linear_36_8389" x1="32.3539" y1="339.654" x2="427.479" y2="339.654" gradientUnits="userSpaceOnUse">
<stop stop-color="#A9CAF5"/>
<stop offset="1" stop-color="#0034AE"/>
</linearGradient>
<linearGradient id="paint77_linear_36_8389" x1="100.297" y1="306.866" x2="104.702" y2="306.866" gradientUnits="userSpaceOnUse">
<stop stop-color="#F4F4F4"/>
<stop offset="1" stop-color="#A9CAF5"/>
</linearGradient>
<linearGradient id="paint78_linear_36_8389" x1="94.7284" y1="276.395" x2="142.491" y2="276.395" gradientUnits="userSpaceOnUse">
<stop stop-color="#F4F4F4"/>
<stop offset="1" stop-color="#A9CAF5"/>
</linearGradient>
<linearGradient id="paint79_linear_36_8389" x1="341.246" y1="57.426" x2="363.44" y2="77.1782" gradientUnits="userSpaceOnUse">
<stop stop-color="#F4F4F4"/>
<stop offset="1" stop-color="#A9CAF5"/>
</linearGradient>
<linearGradient id="paint80_linear_36_8389" x1="79.627" y1="136.99" x2="98.1024" y2="131.747" gradientUnits="userSpaceOnUse">
<stop stop-color="#F4F4F4"/>
<stop offset="1" stop-color="#A9CAF5"/>
</linearGradient>
<linearGradient id="paint81_linear_36_8389" x1="71.8666" y1="112.071" x2="110.085" y2="101.225" gradientUnits="userSpaceOnUse">
<stop stop-color="#F4F4F4"/>
<stop offset="1" stop-color="#A9CAF5"/>
</linearGradient>
<linearGradient id="paint82_linear_36_8389" x1="69.7085" y1="127.087" x2="75.754" y2="125.371" gradientUnits="userSpaceOnUse">
<stop stop-color="#F4F4F4"/>
<stop offset="1" stop-color="#A9CAF5"/>
</linearGradient>
<linearGradient id="paint83_linear_36_8389" x1="72.7412" y1="126.239" x2="80.6844" y2="123.985" gradientUnits="userSpaceOnUse">
<stop stop-color="#F4F4F4"/>
<stop offset="1" stop-color="#A9CAF5"/>
</linearGradient>
<linearGradient id="paint84_linear_36_8389" x1="119.678" y1="113.178" x2="113.639" y2="114.892" gradientUnits="userSpaceOnUse">
<stop stop-color="#F4F4F4"/>
<stop offset="1" stop-color="#A9CAF5"/>
</linearGradient>
<linearGradient id="paint85_linear_36_8389" x1="108.887" y1="116.124" x2="116.823" y2="113.872" gradientUnits="userSpaceOnUse">
<stop stop-color="#F4F4F4"/>
<stop offset="1" stop-color="#A9CAF5"/>
</linearGradient>
<linearGradient id="paint86_linear_36_8389" x1="95.5645" y1="145.614" x2="107.554" y2="142.211" gradientUnits="userSpaceOnUse">
<stop stop-color="#F4F4F4"/>
<stop offset="1" stop-color="#A9CAF5"/>
</linearGradient>
<linearGradient id="paint87_linear_36_8389" x1="86.7819" y1="102.747" x2="115.64" y2="94.5573" gradientUnits="userSpaceOnUse">
<stop stop-color="#F4F4F4"/>
<stop offset="1" stop-color="#A9CAF5"/>
</linearGradient>
<linearGradient id="paint88_linear_36_8389" x1="0.113837" y1="176.954" x2="32.6257" y2="173.46" gradientUnits="userSpaceOnUse">
<stop stop-color="#F4F4F4"/>
<stop offset="1" stop-color="#A9CAF5"/>
</linearGradient>
<linearGradient id="paint89_linear_36_8389" x1="433.169" y1="156.332" x2="447.365" y2="152.717" gradientUnits="userSpaceOnUse">
<stop stop-color="#F4F4F4"/>
<stop offset="1" stop-color="#A9CAF5"/>
</linearGradient>
<linearGradient id="paint90_linear_36_8389" x1="400.754" y1="158.233" x2="441.687" y2="147.81" gradientUnits="userSpaceOnUse">
<stop stop-color="#F4F4F4"/>
<stop offset="1" stop-color="#A9CAF5"/>
</linearGradient>
<linearGradient id="paint91_linear_36_8389" x1="209.976" y1="20.5171" x2="227.52" y2="20.5171" gradientUnits="userSpaceOnUse">
<stop stop-color="#F4F4F4"/>
<stop offset="1" stop-color="#A9CAF5"/>
</linearGradient>
<linearGradient id="paint92_linear_36_8389" x1="233.787" y1="43.8033" x2="237.063" y2="41.327" gradientUnits="userSpaceOnUse">
<stop stop-color="#F4F4F4"/>
<stop offset="1" stop-color="#A9CAF5"/>
</linearGradient>
<linearGradient id="paint93_linear_36_8389" x1="200.804" y1="35.81" x2="236.598" y2="8.74826" gradientUnits="userSpaceOnUse">
<stop stop-color="#F4F4F4"/>
<stop offset="1" stop-color="#A9CAF5"/>
</linearGradient>
<linearGradient id="paint94_linear_36_8389" x1="203.074" y1="33.9674" x2="234.298" y2="10.3519" gradientUnits="userSpaceOnUse">
<stop stop-color="#F4F4F4"/>
<stop offset="1" stop-color="#A9CAF5"/>
</linearGradient>
</defs>
</svg>
