<svg width="74" height="74" viewBox="0 0 74 74" fill="none" xmlns="http://www.w3.org/2000/svg">
<path d="M70.1758 7V3.82416H67H21.1148C11.5655 3.82416 3.82416 11.5655 3.82416 21.1148V52.8852C3.82416 62.4345 11.5655 70.1758 21.1148 70.1758H52.8852C62.4345 70.1758 70.1758 62.4345 70.1758 52.8852V7Z" fill="url(#paint0_linear_36_8742)"/>
<path d="M70.1758 7V3.82416H67H21.1148C11.5655 3.82416 3.82416 11.5655 3.82416 21.1148V52.8852C3.82416 62.4345 11.5655 70.1758 21.1148 70.1758H52.8852C62.4345 70.1758 70.1758 62.4345 70.1758 52.8852V7Z" stroke="#EBEBF5" stroke-width="6.35168"/>
<mask id="mask0_36_8742" style="mask-type:alpha" maskUnits="userSpaceOnUse" x="17" y="17" width="40" height="40">
<rect x="17" y="17" width="40" height="40" fill="#D9D9D9"/>
</mask>
<g mask="url(#mask0_36_8742)">
<path d="M43.9072 30.0063L28.3526 45.545C28.1218 45.7756 27.8318 45.8882 27.4826 45.8829C27.1332 45.8776 26.843 45.7596 26.6122 45.5287C26.3816 45.2979 26.2664 45.0106 26.2664 44.6667C26.2664 44.3228 26.3816 44.0354 26.6122 43.8046L42.1509 28.25H28.4905C28.1364 28.25 27.8394 28.1301 27.5997 27.8904C27.3602 27.6507 27.2405 27.3537 27.2405 26.9996C27.2405 26.6451 27.3602 26.3483 27.5997 26.1092C27.8394 25.8697 28.1364 25.75 28.4905 25.75H44.9005C45.3275 25.75 45.6852 25.8943 45.9739 26.1829C46.2627 26.4718 46.4072 26.8296 46.4072 27.2563V43.6667C46.4072 44.0208 46.2873 44.3176 46.0476 44.5571C45.8079 44.7968 45.5109 44.9167 45.1568 44.9167C44.8023 44.9167 44.5054 44.7968 44.2659 44.5571C44.0268 44.3176 43.9072 44.0208 43.9072 43.6667V30.0063Z" fill="white"/>
</g>
<defs>
<linearGradient id="paint0_linear_36_8742" x1="7" y1="37" x2="67" y2="37" gradientUnits="userSpaceOnUse">
<stop stop-color="#6A11CB"/>
<stop offset="1" stop-color="#2575FC"/>
</linearGradient>
</defs>
</svg>
