<svg width="117" height="37" viewBox="0 0 117 37" fill="none" xmlns="http://www.w3.org/2000/svg">
<path fill-rule="evenodd" clip-rule="evenodd" d="M23 36.2779C30.9715 34.2464 36.8667 27.0189 36.8667 18.4145C36.8667 8.51494 29.0632 0.438028 19.2721 -7.62939e-06V4.61047C22.8376 4.68183 25.7061 7.60386 25.7061 11.198C25.7061 14.7922 22.8376 17.7142 19.2721 17.7856V34H23V36.2779Z" fill="url(#paint0_linear_27_7641)"/>
<path fill-rule="evenodd" clip-rule="evenodd" d="M1.33514e-05 18.415C1.33514e-05 28.3145 7.61751 36.3913 17.1753 36.8295V17.786C13.6965 17.7124 10.8985 14.7913 10.8985 11.1985C10.8985 7.6057 13.6965 4.68454 17.1753 4.61101V0.000457764C7.61751 0.438695 1.33514e-05 8.51552 1.33514e-05 18.415Z" fill="url(#paint1_linear_27_7641)"/>
<path d="M107.123 27.0664L111.796 11.5654H116.356L109.363 31.6426C109.202 32.0723 108.992 32.5396 108.734 33.0444C108.487 33.5493 108.154 34.0273 107.735 34.4785C107.316 34.9404 106.79 35.3164 106.156 35.6064C105.533 35.8965 104.776 36.0415 103.884 36.0415C103.498 36.0415 103.154 36.0146 102.853 35.9609C102.552 35.9072 102.235 35.8374 101.902 35.7515V32.561C102.01 32.5718 102.133 32.5771 102.273 32.5771C102.423 32.5879 102.552 32.5933 102.66 32.5933C103.283 32.5933 103.798 32.5181 104.207 32.3677C104.615 32.228 104.942 31.9971 105.189 31.6748C105.447 31.3633 105.662 30.9551 105.834 30.4502L107.123 27.0664ZM104.819 11.5654L108.767 24.4077L109.459 28.9033L106.527 29.4351L100.227 11.5654H104.819Z" fill="url(#paint2_linear_27_7641)"/>
<path d="M92.3149 29.3223C90.9937 29.3223 89.8066 29.1074 88.7539 28.6777C87.7012 28.248 86.8042 27.6519 86.063 26.8892C85.3325 26.1157 84.7686 25.2188 84.3711 24.1982C83.9844 23.167 83.791 22.0605 83.791 20.8789V20.2344C83.791 18.8916 83.9844 17.6724 84.3711 16.5767C84.7578 15.4702 85.3057 14.5195 86.0146 13.7246C86.7236 12.9297 87.5723 12.3174 88.5605 11.8877C89.5488 11.458 90.6392 11.2432 91.8315 11.2432C93.0669 11.2432 94.1572 11.4526 95.1025 11.8716C96.0479 12.2798 96.8374 12.8599 97.4712 13.6118C98.105 14.3638 98.583 15.2661 98.9053 16.3188C99.2275 17.3608 99.3887 18.5156 99.3887 19.7832V21.5718H85.7246V18.6392H95.1992V18.3169C95.1777 17.6401 95.0488 17.0225 94.8125 16.4639C94.5762 15.8945 94.2109 15.4434 93.7168 15.1104C93.2227 14.7666 92.5835 14.5947 91.7993 14.5947C91.1655 14.5947 90.6123 14.7344 90.1396 15.0137C89.6777 15.2822 89.291 15.6689 88.9795 16.1738C88.6787 16.668 88.4531 17.2588 88.3027 17.9463C88.1523 18.6338 88.0771 19.3965 88.0771 20.2344V20.8789C88.0771 21.6094 88.1738 22.2861 88.3672 22.9092C88.5713 23.5322 88.8667 24.0747 89.2534 24.5366C89.6509 24.9878 90.1235 25.3423 90.6714 25.6001C91.23 25.8472 91.8638 25.9707 92.5728 25.9707C93.4644 25.9707 94.27 25.7988 94.9897 25.4551C95.7202 25.1006 96.354 24.5796 96.8911 23.8921L99.0342 26.1157C98.6689 26.6528 98.1748 27.1685 97.5518 27.6626C96.9395 28.1567 96.1982 28.5596 95.3281 28.8711C94.458 29.1719 93.4536 29.3223 92.3149 29.3223Z" fill="#0000FF"/>
<path d="M68.7412 5.53906V29H64.3101V5.53906H68.7412ZM82.8242 5.53906L73.4141 16.9795L68.0322 22.7319L67.2427 18.4297L70.981 13.5796L77.394 5.53906H82.8242ZM77.8936 29L70.5942 18.0107L73.7686 15.1426L83.1626 29H77.8936Z" fill="#0000FF"/>
<path d="M55.8667 5.47461V29H51.5967V10.4536L45.9409 12.3228V8.87451L55.3833 5.47461H55.8667Z" fill="#0000FF"/>
<defs>
<linearGradient id="paint0_linear_27_7641" x1="19.2721" y1="18.4145" x2="36.8667" y2="18.4145" gradientUnits="userSpaceOnUse">
<stop stop-color="#6A11CB"/>
<stop offset="1" stop-color="#2575FC"/>
</linearGradient>
<linearGradient id="paint1_linear_27_7641" x1="17.1753" y1="18.415" x2="9.53674e-06" y2="18.415" gradientUnits="userSpaceOnUse">
<stop stop-color="#6A11CB"/>
<stop offset="1" stop-color="#2575FC"/>
</linearGradient>
<linearGradient id="paint2_linear_27_7641" x1="100.227" y1="23.8035" x2="116.356" y2="23.8035" gradientUnits="userSpaceOnUse">
<stop stop-color="#6A11CB"/>
<stop offset="1" stop-color="#2575FC"/>
</linearGradient>
</defs>
</svg>
